<svg width="116" height="115" viewBox="0 0 116 115" fill="none" xmlns="http://www.w3.org/2000/svg">
<g clip-path="url(#clip0_10496_35538)">
<path opacity="0.2" d="M105.92 89.9774C103.527 107.689 84.3895 117.761 68.4351 109.705L16.2132 83.3381C-2.64893 73.8144 -2.87577 46.9617 15.8227 37.1207L75.8777 5.51384C94.5762 -4.32715 116.582 11.0634 113.753 32.0032L105.92 89.9774Z" fill="#00C65E"/>
<path d="M82.2731 24.834H16.9113C13.4031 24.834 10.5591 27.6567 10.5591 31.1386V74.8715C10.5591 78.3535 13.4031 81.1762 16.9113 81.1762H82.2731C85.7813 81.1762 88.6253 78.3535 88.6253 74.8715V31.1386C88.6253 27.6567 85.7813 24.834 82.2731 24.834Z" fill="white"/>
<path d="M82.2825 82.0849H16.9115C14.9857 82.0849 13.1385 81.3262 11.7759 79.9754C10.4132 78.6247 9.64647 76.7923 9.64404 74.8809V31.1389C9.65841 29.2303 10.4287 27.4039 11.7885 26.0542C13.1483 24.7046 14.9885 23.94 16.9115 23.9258H82.2825C84.2055 23.94 86.0457 24.7046 87.4055 26.0542C88.7654 27.4039 89.5357 29.2303 89.55 31.1389V74.8809C89.5476 76.7923 88.7809 78.6247 87.4182 79.9754C86.0555 81.3262 84.2084 82.0849 82.2825 82.0849ZM16.9115 25.7609C15.474 25.7751 14.0994 26.3481 13.0829 27.3571C12.0664 28.366 11.489 29.7303 11.4746 31.1571V74.8809C11.4913 76.306 12.0698 77.668 13.0861 78.675C14.1023 79.682 15.4756 80.2538 16.9115 80.268H82.2825C83.7185 80.2538 85.0917 79.682 86.108 78.675C87.1243 77.668 87.7027 76.306 87.7194 74.8809V31.1389C87.7051 29.7121 87.1277 28.3478 86.1112 27.3389C85.0946 26.33 83.72 25.7569 82.2825 25.7427L16.9115 25.7609Z" fill="#00C65E"/>
<path d="M4.68375 81.0596H93.6329C93.7251 81.0596 93.8136 81.0959 93.8788 81.1607C93.9441 81.2254 93.9807 81.3132 93.9807 81.4048V84.2937C93.9807 84.8141 93.7724 85.3132 93.4016 85.6812C93.0309 86.0492 92.528 86.2559 92.0036 86.2559H6.31299C5.78864 86.2559 5.28577 86.0492 4.915 85.6812C4.54423 85.3132 4.33593 84.8141 4.33593 84.2937V81.423C4.33344 81.3761 4.3406 81.3293 4.35696 81.2853C4.37333 81.2413 4.39855 81.201 4.4311 81.167C4.46365 81.133 4.50284 81.1059 4.54628 81.0875C4.58971 81.069 4.63649 81.0595 4.68375 81.0596Z" fill="#1E7836"/>
<rect x="16.7744" y="34.7153" width="32.3842" height="36.5803" rx="1" fill="#FFB762"/>
<rect x="21.001" y="43.6064" width="2.71195" height="23.9306" rx="1" transform="rotate(-90 21.001 43.6064)" fill="white"/>
<rect x="21.001" y="53.4888" width="2.71195" height="19.0015" rx="1" transform="rotate(-90 21.001 53.4888)" fill="white"/>
<rect x="21.001" y="63.3716" width="2.71195" height="16.2233" rx="1" transform="rotate(-90 21.001 63.3716)" fill="white"/>
<g clip-path="url(#clip1_10496_35538)">
<path d="M42.8056 64.384L35.1792 61.5636C35.1248 61.5434 35.0657 61.539 35.0089 61.5511C34.9521 61.5632 34.9 61.5913 34.8588 61.6319C34.8176 61.6725 34.7889 61.724 34.7763 61.7802C34.7637 61.8365 34.7676 61.8952 34.7875 61.9493L37.6444 69.5307C37.6666 69.5894 37.7067 69.6398 37.7591 69.6749C37.8115 69.7099 37.8736 69.7278 37.9367 69.7262C37.9999 69.7245 38.0609 69.7033 38.1114 69.6656C38.1619 69.6279 38.1992 69.5754 38.2182 69.5156L39.0349 66.879L41.8037 69.5608C41.8606 69.617 41.9376 69.6485 42.0178 69.6485C42.098 69.6485 42.1749 69.617 42.2318 69.5608L42.9453 68.8527C43.0018 68.7963 43.0336 68.7199 43.0336 68.6403C43.0336 68.5607 43.0018 68.4843 42.9453 68.4279L40.1855 65.7581L42.8056 64.9535C42.8653 64.933 42.917 64.8946 42.9536 64.8436C42.9902 64.7925 43.0099 64.7314 43.0099 64.6688C43.0099 64.6061 42.9902 64.545 42.9536 64.494C42.917 64.443 42.8653 64.4045 42.8056 64.384Z" fill="#00C65E"/>
</g>
<rect width="1.90606" height="5.23798" rx="0.95303" transform="matrix(-0.533982 -0.845496 0.849088 -0.528252 80.1162 44.1934)" fill="#FFB762"/>
<rect width="1.90606" height="5.23798" rx="0.95303" transform="matrix(-0.533982 -0.845496 0.849088 -0.528252 51.7271 61.8555)" fill="#FFB762"/>
<rect width="1.91231" height="5.22086" rx="0.956156" transform="matrix(0.849088 -0.528252 0.533982 0.845496 57.2666 36.2056)" fill="#FFB762"/>
<rect width="2.54975" height="10.1532" rx="1" transform="matrix(0.849088 -0.528252 0.533982 0.845496 72.0752 60.2485)" fill="#CCEFDB"/>
<path d="M62.7571 43.1067C67.7057 40.0282 74.2267 41.5164 77.3243 46.4212C80.4219 51.326 78.9295 57.7997 73.9811 60.8786C69.0325 63.9573 62.5108 62.4694 59.4131 57.5645C56.3153 52.6596 57.8084 46.1854 62.7571 43.1067Z" fill="white" stroke="#CCEFDB" stroke-width="2"/>
<rect width="1.90919" height="3.89218" rx="0.954595" transform="matrix(-0.978341 -0.222735 0.224415 -0.971018 71.8877 37.6392)" fill="#FFB762"/>
<rect width="1.90919" height="3.89218" rx="0.954595" transform="matrix(0.224415 -0.971018 -0.978341 -0.222735 53.8159 48.8809)" fill="#FFB762"/>
<rect width="1.90919" height="3.89218" rx="0.954595" transform="matrix(-0.224415 0.971018 0.978341 0.222735 81.6479 53.2617)" fill="#FFB762"/>
<rect width="1.90919" height="3.89218" rx="0.954595" transform="matrix(0.978341 0.222735 -0.224415 0.971018 63.729 64.4097)" fill="#FFB762"/>
<path d="M67.7737 52.217L66.2132 49.7461L67.9944 48.6379C68.3486 48.4176 68.7208 48.3541 69.1077 48.4422C69.4947 48.5303 69.8018 48.7484 70.0237 49.0999C70.2457 49.4514 70.3097 49.8208 70.2209 50.2049C70.1269 50.5922 69.9038 50.8917 69.5549 51.1088L67.7737 52.217ZM70.2341 52.1842C70.9318 51.7501 71.3741 51.1681 71.5576 50.4328C71.7391 49.7061 71.6238 49.0105 71.213 48.36C70.8022 47.7095 70.2217 47.3034 69.4803 47.1436C68.7368 46.9923 68.0129 47.1284 67.3153 47.5625L64.3395 49.4138L66.5792 52.9601L65.7123 53.4994L66.3915 54.5748L67.2584 54.0355L67.7322 54.7857L66.8653 55.325L67.5445 56.4004L68.4114 55.8612L69.0906 56.9366L70.2851 56.1934L69.6059 55.118L72.0372 53.6053L71.358 52.5299L68.9267 54.0426L68.4529 53.2924L70.2341 52.1842Z" fill="#00C65E"/>
</g>
<defs>
<clipPath id="clip0_10496_35538">
<rect width="115" height="115" fill="white" transform="translate(0.234375)"/>
</clipPath>
<clipPath id="clip1_10496_35538">
<rect width="10.9296" height="10.8478" fill="white" transform="translate(34.0015 60.6592)"/>
</clipPath>
</defs>
</svg>
