<svg width="116" height="116" viewBox="0 0 116 116" fill="none" xmlns="http://www.w3.org/2000/svg">
<g clip-path="url(#clip0_10496_35574)">
<path opacity="0.2" d="M104.83 90.7386C102.437 108.45 83.2996 118.522 67.3453 110.467L15.1233 84.0993C-3.73877 74.5756 -3.96561 47.7229 14.7329 37.8819L74.7878 6.27507C93.4863 -3.56592 115.492 11.8246 112.663 32.7644L104.83 90.7386Z" fill="#00C65E"/>
<rect x="71.6914" y="29.5435" width="29.3776" height="28.4943" rx="1" transform="rotate(2.21828 71.6914 29.5435)" fill="white"/>
<path d="M52.8345 41.208C52.603 33.7341 53.7472 32.1624 55.1256 31.5143C56.068 31.0712 58.4764 31.1097 60.5864 32.154C63.1536 33.4246 68.6134 39.1493 71.5429 42.6412L66.6513 48.4266L69.5418 51.2548L69.2106 59.8041L54.1286 60.0893C53.2316 53.6732 53.0158 47.059 52.8345 41.208Z" fill="#00C65E"/>
<path d="M54.1285 60.0898L69.2105 59.8046L69.1147 62.2796L83.0457 70.5233C84.4013 71.5378 85.0449 72.5315 85.3229 75.2608C85.601 77.9901 87.3765 91.052 88.2295 97.2418C89.0669 97.2742 91.1901 97.1654 91.7811 98.3167C92.3279 99.3818 92.5027 101.604 92.5909 102.631L81.0625 104.363L76.4202 76.9846C72.913 75.6928 64.7589 72.53 64.7589 72.53C64.7589 72.53 56.4843 69.9612 54.315 61.2132L54.1285 60.0898Z" fill="#FFB762"/>
<path d="M50.4231 79.5593L54.8686 62.9767C56.0631 65.2942 59.434 70.3313 63.362 71.9401L57.5277 84.5634L39.9694 96.9839C40.4057 97.6966 41.2379 99.242 41.1929 100.403C41.1115 102.505 38.2643 103.328 36.8283 104.115L30.3527 93.4818L50.4231 79.5593Z" fill="#F1A74F"/>
<path d="M50.4672 17.9354C50.3293 15.4337 50.3311 14.2969 51.4129 12.9875C54.2917 9.50303 62.1536 11.0478 64.3979 12.3918C65.9885 13.3443 66.5876 14.8788 66.9164 16.8289C67.1794 18.3889 67.4059 23.1758 66.5732 25.6883C66.0111 27.3843 63.7135 30.8624 59.0196 31.2076C54.3258 31.5527 52.1732 28.2431 51.6836 26.5452C51.0509 23.873 50.6168 20.6481 50.4672 17.9354Z" fill="#FBCFB1"/>
<path d="M50.4672 17.9354C50.3293 15.4337 50.3311 14.2969 51.4129 12.9875C54.2917 9.50303 62.1536 11.0478 64.3979 12.3918C65.9885 13.3443 66.781 14.9772 67.0129 17.5482L50.4672 17.9354Z" fill="#00C65E"/>
<path d="M66.439 16.5591L72.1303 16.3955" stroke="#00C65E" stroke-width="2" stroke-linecap="round"/>
<path d="M28.4858 44.8066L44.4396 44.8066" stroke="#00C65E" stroke-width="3" stroke-linecap="round"/>
<path d="M43.5967 51.5298L54.4047 51.5298" stroke="white" stroke-width="2" stroke-linecap="round"/>
<path d="M15.6196 59.6802L41.3786 59.6799" stroke="#00C65E" stroke-width="3" stroke-linecap="round"/>
<path d="M33.0298 69.4756L46.8351 69.4756" stroke="white" stroke-width="2" stroke-linecap="round"/>
<path d="M72.8017 54.3053L66.6333 48.4185L71.5537 42.6626L75.4753 47.2122L92.8666 48.4855L95.2563 47.4289L100.396 47.628L100.121 54.7135C98.3039 54.7597 94.472 54.7745 93.6845 54.4642C92.8969 54.1538 91.7263 54.2717 91.2394 54.3695L72.8017 54.3053Z" fill="#FBCFB1"/>
<path d="M62.1119 43.7848C62.2941 43.5773 62.61 43.5568 62.8175 43.739L67.2895 47.6606L66.6325 48.419L62.1577 44.4904C61.9502 44.3083 61.9297 43.9923 62.1119 43.7848Z" fill="#1E7836"/>
<path d="M83.1558 29.9062L90.3042 30.1832L90.0089 37.8068C89.9876 38.3587 89.5228 38.7887 88.971 38.7673L83.821 38.5679C83.2691 38.5465 82.8391 38.0818 82.8605 37.5299L83.1558 29.9062Z" fill="#FD9558"/>
</g>
<defs>
<clipPath id="clip0_10496_35574">
<rect width="115" height="115" fill="white" transform="translate(0.34375 0.397949)"/>
</clipPath>
</defs>
</svg>
