<svg width="115" height="116" viewBox="0 0 115 116" fill="none" xmlns="http://www.w3.org/2000/svg">
<g clip-path="url(#clip0_10496_35595)">
<path opacity="0.2" d="M105.163 90.9266C102.77 108.638 83.6326 118.71 67.6783 110.655L15.4563 84.2873C-3.40576 74.7636 -3.6326 47.9109 15.0659 38.0699L75.1209 6.46305C93.8193 -3.37793 115.825 12.0126 112.996 32.9524L105.163 90.9266Z" fill="#00C65E"/>
<rect x="9.80469" y="15.4824" width="55.6529" height="63.338" rx="1" fill="white"/>
<rect x="16.375" y="27.8667" width="2.5" height="41.1253" rx="1" transform="rotate(-90 16.375 27.8667)" fill="#FD9558"/>
<rect x="16.375" y="38.0098" width="2.5" height="23.0779" rx="1" transform="rotate(-90 16.375 38.0098)" fill="#FD9558"/>
<rect x="16.375" y="48.1543" width="2.5" height="19.3772" rx="1" transform="rotate(-90 16.375 48.1543)" fill="#FD9558"/>
<rect x="16.375" y="58.2974" width="2.5" height="23.0779" rx="1" transform="rotate(-90 16.375 58.2974)" fill="#FD9558"/>
<rect x="40.2045" y="50.2496" width="13.7986" height="27.4435" transform="rotate(-60 40.2045 50.2496)" fill="#0FC645" stroke="white"/>
<path d="M48.3127 50.6889L46.4763 49.6778L47.1997 48.3639C47.3435 48.1027 47.5534 47.9337 47.8255 47.8549C48.0975 47.776 48.3652 47.8066 48.6265 47.9504C48.8877 48.0942 49.0566 48.3041 49.1355 48.5761C49.2122 48.8521 49.1777 49.1177 49.0361 49.375L48.3127 50.6889ZM49.8353 49.815C50.1187 49.3004 50.1911 48.7814 50.0486 48.2558C49.9078 47.7363 49.5929 47.3393 49.1094 47.0731C48.626 46.807 48.1222 46.7531 47.604 46.9098C47.0876 47.0726 46.6838 47.4092 46.4005 47.9238L45.1919 50.1189L47.8275 51.57L47.4755 52.2094L48.2747 52.6495L48.6268 52.0101L49.1843 52.3171L48.8323 52.9565L49.6315 53.3965L49.9836 52.7571L50.7828 53.1972L51.268 52.316L50.4687 51.876L51.4562 50.0825L50.6569 49.6425L49.6694 51.4359L49.1119 51.1289L49.8353 49.815Z" fill="white"/>
<rect x="43.7172" y="38.6156" width="13.7986" height="27.4435" transform="rotate(-30 43.7172 38.6156)" fill="#0FC645" stroke="white"/>
<path d="M50.7594 43.6527L49.6867 41.8517L50.9754 41.0842C51.2315 40.9316 51.4981 40.892 51.7726 40.9616C52.0472 41.0311 52.2627 41.1929 52.4153 41.4491C52.5679 41.7053 52.6075 41.9718 52.5379 42.2464C52.4645 42.5232 52.3005 42.7349 52.0481 42.8852L50.7594 43.6527ZM52.515 43.6691C53.0197 43.3685 53.3447 42.9573 53.4876 42.4319C53.629 41.9125 53.5581 41.4108 53.2756 40.9366C52.9932 40.4625 52.5858 40.1612 52.0596 40.0343C51.5318 39.9135 51.0132 39.9996 50.5085 40.3003L48.3556 41.5825L49.8952 44.1675L49.2681 44.541L49.735 45.3249L50.3621 44.9514L50.6878 45.4982L50.0607 45.8717L50.5276 46.6556L51.1547 46.2821L51.6216 47.0659L52.4858 46.5512L52.0189 45.7673L53.7779 44.7197L53.311 43.9358L51.552 44.9834L51.2263 44.4366L52.515 43.6691Z" fill="white"/>
<rect x="51.819" y="31.82" width="13.7986" height="27.4435" transform="rotate(-4.13873 51.819 31.82)" fill="#0FC645" stroke="white"/>
<path d="M58.7731 40.4764L58.6631 38.383L60.1609 38.3043C60.4587 38.2887 60.713 38.3778 60.9235 38.5673C61.134 38.7568 61.2493 39.0003 61.265 39.2981C61.2806 39.5959 61.1915 39.8502 61.002 40.0607C60.8081 40.2715 60.5643 40.3823 60.271 40.3977L58.7731 40.4764ZM60.3188 41.3089C60.9055 41.278 61.3846 41.0657 61.7559 40.6673C62.123 40.2737 62.294 39.7967 62.265 39.2456C62.2361 38.6944 62.016 38.238 61.6094 37.8806C61.1987 37.5278 60.6997 37.3623 60.1131 37.3932L57.6108 37.5247L57.7686 40.5292L57.0397 40.5675L57.0876 41.4787L57.8165 41.4404L57.8499 42.076L57.121 42.1143L57.1689 43.0254L57.8978 42.9871L57.9457 43.8982L58.9502 43.8455L58.9023 42.9343L60.9468 42.8269L60.8989 41.9157L58.8544 42.0232L58.821 41.3876L60.3188 41.3089Z" fill="white"/>
<path d="M82.3605 77.9186V61.0701C79.5322 60.2326 77.8241 58.4545 77.3308 58.027C76.8375 57.5994 75.259 54.9682 73.4173 53.1268C71.944 51.6537 69.0543 50.934 67.7937 50.7583L67.5215 55.5269C67.5215 55.5269 65.6166 55.0471 58.7499 54.9682C51.8831 54.8893 53.6744 59.4518 55.4284 61.7429C52.8764 64.1897 54.2554 67.1254 55.2639 68.2874C53.2118 70.7605 55.2638 73.2642 56.5463 74.207C56.5463 74.207 53.8423 76.7776 56.5463 79.8495C57.5865 81.0312 68.7975 80.0902 73.2115 79.4485C76.7427 78.9351 80.4081 77.9186 82.3605 77.9186Z" fill="#FBCFB1"/>
<rect x="81.8906" y="58.6582" width="7.27361" height="21.7574" fill="#00C65E"/>
<path d="M18.0137 64.7811C18.2979 63.4759 19.1535 61.2997 20.3015 63.0366C20.9654 64.0411 21.4881 65.7514 21.6777 67.5452M21.6777 67.5452C21.8979 69.6286 21.6688 71.8246 20.6893 73.1583C18.8665 75.6404 17.9347 70.7744 21.6777 67.5452ZM21.6777 67.5452C22.9383 65.8095 25.4052 62.9818 25.1881 65.557C24.9166 68.7759 22.163 72.3827 24.3348 71.1804C26.5067 69.9782 29.6093 64.665 29.6093 66.7592C29.6093 68.8535 31.7035 72.6542 36.784 68.2717" stroke="#0FC645"/>
</g>
<defs>
<clipPath id="clip0_10496_35595">
<rect width="115" height="115" fill="white" transform="translate(0 0.869141)"/>
</clipPath>
</defs>
</svg>
