<svg width="61" height="57" viewBox="0 0 61 57" fill="none" xmlns="http://www.w3.org/2000/svg">
<path d="M48.8826 1.12988C49.1494 1.12992 49.4062 1.22149 49.6101 1.38672L49.6941 1.46289C49.8818 1.64868 49.9973 1.89139 50.0242 2.14941L50.031 2.26074V3.35742C50.031 3.50532 50.0013 3.65224 49.9441 3.78906C49.8868 3.92587 49.8022 4.05025 49.696 4.15527C49.59 4.2602 49.464 4.34358 49.325 4.40039C49.2205 4.44303 49.11 4.47087 48.9978 4.48145L48.8855 4.48633H44.0574L46.0632 5.77539C50.3535 8.53202 53.84 12.3582 56.1736 16.8721C58.5072 21.3859 59.6061 26.4291 59.3621 31.4971C59.118 36.5649 57.5396 41.4808 54.783 45.7529C52.0564 49.9784 48.2714 53.4272 43.8005 55.7637H16.6648C12.194 53.4272 8.40987 49.9783 5.68335 45.7529C3.01275 41.6142 1.44671 36.8716 1.12964 31.9717L1.10327 31.4971C0.866879 26.5875 1.89108 21.7012 4.0769 17.2969L4.29272 16.8721C6.62628 12.3584 10.1121 8.53195 14.4021 5.77539L16.408 4.48633H11.5759C11.3098 4.48627 11.0542 4.39372 10.8513 4.22852L10.7673 4.15332C10.5542 3.94135 10.4354 3.65503 10.4353 3.35742V2.26074C10.4366 1.96275 10.5558 1.67605 10.7693 1.46387C10.9565 1.27793 11.203 1.16251 11.4656 1.13574L11.5789 1.12988H48.8826Z" stroke="#00C65E" stroke-width="1.4"/>
<path d="M2.98488 17.9658C-0.13365 24.8833 -0.471886 32.7233 2.03943 39.8804C4.55075 47.0375 9.72159 52.9701 16.493 56.4632H43.9732C50.7446 52.9701 55.9155 47.0375 58.4268 39.8804C60.9381 32.7233 60.5999 24.8833 57.4813 17.9658H2.98488Z" fill="#00C65E"/>
<path d="M11.1421 35.0343C12.6278 36.8706 14.3588 38.4971 16.287 39.8687L18.0496 38.9117L18.385 40.939C29.5668 46.3688 38.3653 35.0343 38.3653 35.0343C23.5371 19.2554 11.1421 35.0343 11.1421 35.0343Z" fill="#F9B565"/>
<path d="M11.1421 35.0332C12.637 37.0128 14.4702 38.7163 16.5582 40.066L17.3931 40.5338C18.3054 41.0119 19.2611 41.4035 20.2474 41.7034C21.5271 39.7129 22.1942 37.3948 22.167 35.0332C22.2256 32.854 21.6535 30.7038 20.5186 28.8379C16.7104 29.6356 13.3548 31.8527 11.1421 35.0332Z" fill="#F3935A"/>
<path d="M19.3412 35.2743C20.2831 35.2743 21.0467 34.5634 21.0467 33.6864C21.0467 32.8095 20.2831 32.0986 19.3412 32.0986C18.3993 32.0986 17.6357 32.8095 17.6357 33.6864C17.6357 34.5634 18.3993 35.2743 19.3412 35.2743Z" fill="white"/>
<path d="M18.991 32.5674C19.11 32.5146 19.2388 32.4873 19.3692 32.4873C19.4995 32.4873 19.6284 32.5146 19.7474 32.5674C19.9908 32.6656 20.1994 32.8333 20.3468 33.0494C20.4997 33.2545 20.5823 33.503 20.5823 33.7582C20.5823 34.0135 20.4997 34.262 20.3468 34.4671C20.1808 34.1094 19.9901 33.7636 19.7759 33.4322C19.5546 33.1102 19.2905 32.8193 18.991 32.5674Z" fill="#F3935A"/>
<path d="M24.1785 42.4629L31.664 45.9008C32.5274 44.8233 31.8923 40.4072 31.8923 40.4072C31.8923 40.4072 27.8748 42.5125 24.1785 42.4629Z" fill="#F3935A"/>
<path d="M15.5508 30.8374C15.5508 30.8374 19.6682 25.8755 25.6908 25.6487C29.6067 25.5724 33.5033 26.2115 37.1867 27.5342L33.6687 31.0005C33.6687 31.0005 25.7979 25.3014 15.5508 30.8374Z" fill="#F3935A"/>
<path d="M37.1875 33.8499L38.3506 35.0337L37.1875 36.2317C38.3378 37.1156 39.6182 37.8185 40.9838 38.3157C42.6857 38.9078 44.4588 39.2748 46.2572 39.4073C46.2572 39.4073 45.2153 35.0479 42.3539 34.2682C43.2201 33.5367 43.8697 32.585 44.233 31.5148C44.5963 30.4447 44.6596 29.2965 44.4161 28.1934C42.6019 28.6726 40.9631 29.6562 39.6922 31.0287C38.8002 31.8794 37.1875 33.8499 37.1875 33.8499Z" fill="#F3935A"/>
<path d="M16.2732 39.8827C16.5939 39.6647 16.9013 39.428 17.1937 39.1738C17.4854 38.9384 17.7403 38.6613 17.9501 38.3516C17.8434 38.7249 17.6823 39.0807 17.472 39.4077C17.2918 39.7044 17.0916 39.9886 16.8726 40.2584L16.5872 40.1024L16.2732 39.8827Z" fill="#F9B565"/>
<path d="M9.52689 33.4777C10.8235 33.4777 11.8746 32.4336 11.8746 31.1456C11.8746 29.8576 10.8235 28.8135 9.52689 28.8135C8.2303 28.8135 7.1792 29.8576 7.1792 31.1456C7.1792 32.4336 8.2303 33.4777 9.52689 33.4777Z" fill="white"/>
<path d="M12.6098 26.4308C13.4492 26.4308 14.1297 25.7548 14.1297 24.921C14.1297 24.0871 13.4492 23.4111 12.6098 23.4111C11.7703 23.4111 11.0898 24.0871 11.0898 24.921C11.0898 25.7548 11.7703 26.4308 12.6098 26.4308Z" fill="white"/>
<path d="M9.04253 21.5546C9.59822 21.5546 10.0487 21.1071 10.0487 20.5551C10.0487 20.0031 9.59822 19.5557 9.04253 19.5557C8.48685 19.5557 8.03638 20.0031 8.03638 20.5551C8.03638 21.1071 8.48685 21.5546 9.04253 21.5546Z" fill="white"/>
<path opacity="0.5" d="M50.7316 2.25748V3.35619C50.7316 3.84123 50.5377 4.30639 50.1924 4.64936C49.8471 4.99234 49.3789 5.18501 48.8906 5.18501H46.443C50.8345 8.00846 54.4032 11.9273 56.7925 16.5498C59.1819 21.1724 60.3083 26.3369 60.0591 31.5273C59.8099 36.7177 58.1939 41.7523 55.3725 46.1281C52.5511 50.5038 48.6232 54.0674 43.9811 56.4629H16.4938C16.4938 56.4629 39.8637 50.941 50.5604 36.275C54.6849 30.6042 56.9826 17.1361 45.8721 7.21231C42.1615 3.93036 50.7316 2.03774 50.7316 2.25748Z" fill="white"/>
</svg>
