<svg width="63" height="68" viewBox="0 0 63 68" fill="none" xmlns="http://www.w3.org/2000/svg">
<path d="M33.2731 34.2543C31.9411 34.2543 30.6222 33.9916 29.3919 33.4813C28.1615 32.9709 27.0439 32.223 26.103 31.2802C25.1621 30.3374 24.4163 29.2183 23.9084 27.987C23.4005 26.7556 23.1405 25.4362 23.1431 24.1043V10.3743C23.2258 7.74402 24.3287 5.24918 26.2185 3.41786C28.1083 1.58655 30.6365 0.5625 33.2681 0.5625C35.8996 0.5625 38.4279 1.58655 40.3177 3.41786C42.2074 5.24918 43.3104 7.74402 43.3931 10.3743V24.1043C43.3957 25.4354 43.136 26.754 42.6287 27.9847C42.1214 29.2154 41.3766 30.334 40.4367 31.2766C39.4968 32.2193 38.3804 32.9675 37.1512 33.4784C35.922 33.9893 34.6042 34.2529 33.2731 34.2543ZM33.2731 5.25426C31.9143 5.25426 30.6109 5.79337 29.6492 6.75327C28.6874 7.71317 28.1457 9.01544 28.1431 10.3743V24.1043C28.2014 25.4243 28.7669 26.671 29.7216 27.5845C30.6763 28.498 31.9467 29.0078 33.2681 29.0078C34.5894 29.0078 35.8598 28.498 36.8146 27.5845C37.7693 26.671 38.3348 25.4243 38.3931 24.1043V10.3743C38.3904 9.01717 37.8502 7.71641 36.8906 6.75679C35.9309 5.79718 34.6302 5.25691 33.2731 5.25426Z" fill="#F89358"/>
<path d="M54.133 12.5947H10.113C5.53456 12.5947 1.823 16.3063 1.823 20.8847V50.2147C1.823 54.7932 5.53456 58.5047 10.113 58.5047H54.133C58.7114 58.5047 62.423 54.7932 62.423 50.2147V20.8847C62.423 16.3063 58.7114 12.5947 54.133 12.5947Z" fill="#F89358"/>
<path d="M55.2431 17.3545H12.5531C8.59317 17.3545 5.38306 20.5646 5.38306 24.5245V46.6745C5.38306 50.6344 8.59317 53.8445 12.5531 53.8445H55.2431C59.2029 53.8445 62.4131 50.6344 62.4131 46.6745V24.5245C62.4131 20.5646 59.2029 17.3545 55.2431 17.3545Z" fill="#FFB762"/>
<path d="M56.7631 12.5947H11.0331C7.91265 12.5947 5.38306 15.1243 5.38306 18.2447V29.6247C5.38306 32.7451 7.91265 35.2747 11.0331 35.2747H56.7631C59.8835 35.2747 62.4131 32.7451 62.4131 29.6247V18.2447C62.4131 15.1243 59.8835 12.5947 56.7631 12.5947Z" fill="#F89358"/>
<path d="M33.993 27.1445H33.923C32.2164 27.1445 30.833 28.528 30.833 30.2345V36.3045C30.833 38.0111 32.2164 39.3945 33.923 39.3945H33.993C35.6996 39.3945 37.083 38.0111 37.083 36.3045V30.2345C37.083 28.528 35.6996 27.1445 33.993 27.1445Z" fill="white"/>
<path d="M10.6552 61.0221L17.3625 59.4986L10.6552 57.8697L9.07424 51.6895L7.3591 57.8314L0.651855 59.374L7.30161 60.9742L8.96884 67.4898L10.6552 61.0221Z" fill="#00C65E"/>
<path d="M58.9429 5.2543L62.4229 4.4543L58.9029 3.6143L58.0829 0.404297L57.2129 3.6243L53.6929 4.4343L57.1629 5.2543L58.0329 8.6543L58.9429 5.2543Z" fill="#FFB762"/>
</svg>
