<svg width="62" height="65" viewBox="0 0 62 65" fill="none" xmlns="http://www.w3.org/2000/svg">
<path d="M20.4521 4.16406H8.99854V20.8904H20.4521V4.16406Z" fill="#F89358"/>
<path d="M22.0144 0.638672H9.30113C7.66175 0.638672 6.33276 1.96766 6.33276 3.60704V6.10672C6.33276 7.74611 7.66175 9.07509 9.30113 9.07509H22.0144C23.6537 9.07509 24.9827 7.74611 24.9827 6.10672V3.60704C24.9827 1.96766 23.6537 0.638672 22.0144 0.638672Z" fill="#F89358"/>
<path d="M43.2128 13.5576H9.00821C4.39204 13.5576 0.649902 17.2998 0.649902 21.9159V47.9575C0.649902 52.5737 4.39204 56.3158 9.00821 56.3158H43.2128C47.829 56.3158 51.5711 52.5737 51.5711 47.9575V21.9159C51.5711 17.2998 47.829 13.5576 43.2128 13.5576Z" fill="#F89358"/>
<path d="M43.7304 13.5576H11.1955C6.86518 13.5576 3.35474 17.0681 3.35474 21.3984V45.3895C3.35474 49.7198 6.86518 53.2303 11.1955 53.2303H43.7304C48.0608 53.2303 51.5712 49.7198 51.5712 45.3895V21.3984C51.5712 17.0681 48.0608 13.5576 43.7304 13.5576Z" fill="#FFB762"/>
<path d="M36.4851 26.8562V16.9746H44.4626C45.4985 16.9746 46.4919 17.3861 47.2244 18.1186C47.9569 18.851 48.3684 19.8445 48.3684 20.8804V26.8659L36.4851 26.8562Z" fill="white"/>
<path d="M22.3074 4.16406H10.8538V20.8904H22.3074V4.16406Z" fill="#FFB762"/>
<path d="M22.2975 0.638672H10.8634C9.37504 0.638672 8.16846 1.84525 8.16846 3.33364V5.6478C8.16846 7.13619 9.37504 8.34276 10.8634 8.34276H22.2975C23.7859 8.34276 24.9925 7.13619 24.9925 5.6478V3.33364C24.9925 1.84525 23.7859 0.638672 22.2975 0.638672Z" fill="#FFB762"/>
<path d="M43.2717 64.164C53.3725 64.164 61.5608 55.9758 61.5608 45.875C61.5608 35.7742 53.3725 27.5859 43.2717 27.5859C33.171 27.5859 24.9827 35.7742 24.9827 45.875C24.9827 55.9758 33.171 64.164 43.2717 64.164Z" fill="#00C65E"/>
<path d="M43.2717 59.7768C50.9496 59.7768 57.1738 53.5526 57.1738 45.8747C57.1738 38.1968 50.9496 31.9727 43.2717 31.9727C35.5938 31.9727 29.3696 38.1968 29.3696 45.8747C29.3696 53.5526 35.5938 59.7768 43.2717 59.7768Z" fill="#CCE7D7"/>
<path d="M43.2718 52.0426C46.5199 52.0426 49.153 49.4096 49.153 46.1615C49.153 42.9134 46.5199 40.2803 43.2718 40.2803C40.0237 40.2803 37.3906 42.9134 37.3906 46.1615C37.3906 49.4096 40.0237 52.0426 43.2718 52.0426Z" fill="white"/>
<path d="M43.2719 50.3812C45.7608 50.3812 47.7784 48.3636 47.7784 45.8747C47.7784 43.3858 45.7608 41.3682 43.2719 41.3682C40.783 41.3682 38.7654 43.3858 38.7654 45.8747C38.7654 48.3636 40.783 50.3812 43.2719 50.3812Z" fill="#00C65E"/>
<path d="M43.8694 45.4189H42.6621V60.875H43.8694V45.4189Z" fill="#00C65E"/>
<path d="M43.8694 30.7051H42.6621V46.1611H43.8694V30.7051Z" fill="#00C65E"/>
<path d="M43.5107 45.1921V46.3994H58.9668V45.1921H43.5107Z" fill="#00C65E"/>
<path d="M28.7959 45.1804V46.3877H44.2519V45.1804H28.7959Z" fill="#00C65E"/>
<path d="M43.5005 45.5382L42.6504 46.3955L53.6251 57.2787L54.4753 56.4214L43.5005 45.5382Z" fill="#00C65E"/>
<path d="M33.0525 35.1759L32.2024 36.0332L43.1771 46.9164L44.0273 46.0591L33.0525 35.1759Z" fill="#00C65E"/>
<path d="M43.0734 45.6294L43.9307 46.4795L54.8139 35.5047L53.9566 34.6546L43.0734 45.6294Z" fill="#00C65E"/>
<path d="M32.7221 56.0757L33.5793 56.9258L44.4625 45.951L43.6053 45.1009L32.7221 56.0757Z" fill="#00C65E"/>
<path d="M43.2718 48.5881C44.7704 48.5881 45.9853 47.3732 45.9853 45.8746C45.9853 44.376 44.7704 43.1611 43.2718 43.1611C41.7732 43.1611 40.5583 44.376 40.5583 45.8746C40.5583 47.3732 41.7732 48.5881 43.2718 48.5881Z" fill="white"/>
<path d="M17.3427 55.9011L24.3427 54.2711L17.3427 52.6111L15.6627 46.1611L13.9727 52.6111L6.97266 54.2711L13.9127 55.9011L15.7027 62.6911L17.3427 55.9011Z" fill="#00C65E"/>
<path d="M9.22855 41.875L13.3186 40.875L9.16855 39.875L8.16855 36.085L7.16855 39.875L3.01855 40.875L7.10855 41.875L8.10855 45.875L9.22855 41.875Z" fill="white"/>
</svg>
