<svg width="71" height="71" viewBox="0 0 71 71" fill="none" xmlns="http://www.w3.org/2000/svg">
<path d="M37.0539 69.1105L34.7839 70.4505L32.4139 68.9605C30.3239 67.6405 27.4639 65.8105 24.4139 63.7605C18.2039 59.6205 11.3139 54.7605 7.95393 51.3705L7.79393 51.2905C5.52518 49.3968 3.68167 47.0456 2.38393 44.3905C1.09443 41.7713 0.375265 38.9082 0.273926 35.9905C0.348672 32.164 1.59079 28.4516 3.83393 25.3505C6.1125 22.2153 9.27493 19.8316 12.9163 18.5043C16.5577 17.1771 20.5123 16.9669 24.2739 17.9005C28.0136 18.8291 31.3826 20.8728 33.9339 23.7605C34.1216 23.9733 34.3524 24.1438 34.611 24.2605C34.8697 24.3773 35.1502 24.4376 35.4339 24.4376C35.7177 24.4376 35.9982 24.3773 36.2568 24.2605C36.5154 24.1438 36.7462 23.9733 36.9339 23.7605C39.5676 20.9102 42.9926 18.9114 46.7698 18.0206C50.547 17.1297 54.5042 17.3874 58.1339 18.7605C61.7355 20.1342 64.8307 22.5768 67.0039 25.7605C69.1612 28.8908 70.3028 32.609 70.2739 36.4105C70.0583 39.3315 69.2448 42.177 67.8839 44.7705C66.4952 47.4033 64.5867 49.7268 62.2739 51.6005L62.1639 51.7005C58.1639 55.4705 51.1639 60.2905 44.9439 64.2205C41.9039 66.1805 39.0939 67.8905 37.0539 69.1105Z" fill="#F89358"/>
<path d="M36.7239 64.4401L34.8739 65.5301L32.9439 64.2901C31.2439 63.2101 28.9439 61.7201 26.4039 60.0501C21.3439 56.6801 15.7239 52.6901 12.9939 49.9501L12.8839 49.8501C11.0417 48.3251 9.53943 46.4311 8.47391 44.2901C7.4259 42.1564 6.8398 39.8257 6.75391 37.4501C6.81944 34.333 7.8308 31.3093 9.65391 28.7801C11.5129 26.2215 14.0939 24.2766 17.0659 23.1951C20.0379 22.1135 23.2653 21.9447 26.3339 22.7101C29.3816 23.4677 32.1266 25.1349 34.2039 27.4901C34.3595 27.6595 34.5478 27.7957 34.7575 27.8902C34.9672 27.9847 35.1939 28.0357 35.4239 28.0401C35.6545 28.042 35.883 27.9959 36.0947 27.9046C36.3065 27.8134 36.4969 27.679 36.6539 27.5101C38.7982 25.1865 41.5885 23.5574 44.666 22.8321C47.7436 22.1068 50.9677 22.3186 53.9239 23.4401C56.856 24.5481 59.3789 26.5267 61.1539 29.1101C62.9099 31.6621 63.8386 34.6924 63.8139 37.7901C63.6335 40.1722 62.97 42.4927 61.8639 44.6101C60.7283 46.7565 59.1664 48.6485 57.2739 50.1701L57.1839 50.2501C53.9339 53.3301 48.1839 57.2501 43.1839 60.4601C40.6739 62.0501 38.3839 63.4401 36.7239 64.4401Z" fill="#FFB762"/>
<path d="M47.9639 46.0212L48.3239 45.7012L48.2439 45.6012L47.9339 45.2512C47.6839 44.9612 46.4939 43.6812 46.1239 43.2512L44.1939 41.0612C43.799 40.664 43.4623 40.2128 43.1939 39.7212C43.103 39.5551 43.0517 39.3703 43.0439 39.1812C43.0439 39.1268 43.0566 39.0733 43.0809 39.0247C43.1052 38.9761 43.1404 38.9338 43.1839 38.9012C43.2441 38.8407 43.3205 38.799 43.4039 38.7812C43.5327 38.758 43.6655 38.7755 43.7839 38.8312C44.4851 39.1654 45.1137 39.6343 45.6339 40.2112C46.5239 41.0712 48.1939 42.7612 48.7939 43.3612C49.1039 43.6512 49.3439 43.9012 49.5139 44.0612L49.7139 44.2612L50.0539 43.9112L49.7139 44.2612C49.7579 44.3071 49.8105 44.344 49.8687 44.3696C49.927 44.3952 49.9897 44.4092 50.0533 44.4105C50.1169 44.4119 50.1802 44.4008 50.2395 44.3777C50.2988 44.3547 50.3529 44.3202 50.3989 44.2762C50.4449 44.2322 50.4817 44.1796 50.5073 44.1213C50.533 44.0631 50.5469 44.0004 50.5483 43.9368C50.5497 43.8732 50.5385 43.8099 50.5155 43.7506C50.4924 43.6913 50.4579 43.6371 50.4139 43.5912L47.5339 40.4212C47.1167 40.0339 46.8213 39.5336 46.6839 38.9812C46.6733 38.8897 46.6871 38.7971 46.724 38.7128C46.7609 38.6285 46.8195 38.5554 46.8939 38.5012C46.936 38.4525 46.9917 38.4177 47.0539 38.4012C47.1673 38.3905 47.2815 38.4112 47.3839 38.4612C48.1442 38.8442 48.8233 39.3705 49.3839 40.0112L56.0339 47.0112L56.1739 47.1712C56.8139 47.9012 57.3539 48.5212 57.7839 49.1012C58.1471 49.653 58.4553 50.2391 58.7039 50.8512C58.7039 51.0112 58.8339 51.2412 58.9339 51.5012C59.1839 52.2212 59.5239 53.2012 59.7139 53.8812L54.4639 58.8812C52.9539 58.3912 46.9639 56.5412 44.8639 55.6812C43.8639 55.2512 42.8639 54.8412 42.1439 54.5412L41.3039 54.1812L41.0739 54.0812H41.0139L40.8539 53.9912C40.6918 53.8987 40.5408 53.788 40.4039 53.6612C40.2718 53.5533 40.1716 53.4116 40.1139 53.2512C40.0812 53.1842 40.0642 53.1107 40.0642 53.0362C40.0642 52.9617 40.0812 52.8881 40.1139 52.8212C40.1468 52.7594 40.1923 52.7053 40.2474 52.6622C40.3025 52.6192 40.366 52.5881 40.4339 52.5712C40.6395 52.5008 40.8573 52.4736 41.0739 52.4912C41.2855 52.4963 41.4963 52.5197 41.7039 52.5612H41.9039L45.9039 53.7612C46.0059 53.7922 46.1153 53.7884 46.2149 53.7504C46.3145 53.7124 46.3986 53.6423 46.4539 53.5512C46.5107 53.4619 46.5356 53.356 46.5247 53.2507C46.5138 53.1455 46.4677 53.047 46.3939 52.9712L40.3139 46.5912C39.8244 46.1174 39.4157 45.5668 39.1039 44.9612C38.9239 44.5512 38.9939 44.4212 39.0239 44.3912C39.0798 44.344 39.1473 44.3126 39.2194 44.3003C39.2915 44.288 39.3655 44.2952 39.4339 44.3212C39.7661 44.4265 40.0774 44.589 40.3539 44.8012L45.0439 48.8012C45.1325 48.8827 45.2485 48.9279 45.3689 48.9279C45.4893 48.9279 45.6053 48.8827 45.6939 48.8012C45.7761 48.7109 45.8217 48.5933 45.8217 48.4712C45.8217 48.3491 45.7761 48.2314 45.6939 48.1412L45.3339 48.4712L45.6939 48.1412L45.6139 48.0512L45.3239 47.7312C45.0739 47.4512 43.8939 46.1812 43.5139 45.7312C42.7539 44.8712 41.8539 43.8212 41.2639 43.0812C40.7785 42.5254 40.3652 41.9105 40.0339 41.2512C39.9559 41.0859 39.9214 40.9035 39.9339 40.7212C39.9503 40.5846 40.0183 40.4594 40.1239 40.3712C40.2165 40.2641 40.3441 40.1933 40.4839 40.1712C40.6255 40.1555 40.7686 40.1834 40.8939 40.2512C41.4581 40.5158 41.9777 40.8666 42.4339 41.2912C43.0139 41.8112 44.0939 42.8712 45.0439 43.7912L47.1039 45.8812L47.4839 46.2612L47.5839 46.3612L47.9639 46.0212ZM47.9639 46.0212L48.3239 45.7012C48.4113 45.7908 48.4601 45.911 48.4601 46.0362C48.4601 46.1613 48.4113 46.2815 48.3239 46.3712C48.2331 46.4562 48.1133 46.5036 47.9889 46.5036C47.8645 46.5036 47.7447 46.4562 47.6539 46.3712L47.9639 46.0212Z" fill="white"/>
<path d="M54.5338 59.1911H54.4538L53.1638 58.7811C50.8538 58.0511 46.5438 56.6811 44.8238 55.9711C43.8238 55.5411 42.8238 55.1411 42.1038 54.8311L41.0338 54.3711H40.9438L40.7138 54.2411C40.5316 54.1444 40.3634 54.0232 40.2138 53.8811C40.0462 53.7399 39.9186 53.5571 39.8438 53.3511C39.8084 53.244 39.7964 53.1306 39.8084 53.0185C39.8205 52.9064 39.8565 52.7982 39.9138 52.7011C40.0176 52.5141 40.1896 52.3744 40.3938 52.3111C40.6295 52.2362 40.877 52.2057 41.1238 52.2211C41.3559 52.2247 41.5871 52.2515 41.8138 52.3011H42.0138H42.1038L46.1038 53.5011C46.1467 53.514 46.1927 53.5121 46.2344 53.4958C46.2761 53.4795 46.3111 53.4497 46.3338 53.4111C46.3584 53.3759 46.3715 53.334 46.3715 53.2911C46.3715 53.2482 46.3584 53.2063 46.3338 53.1711L40.2738 46.8211C39.7641 46.3169 39.3356 45.7367 39.0038 45.1011C38.8338 44.7111 38.8238 44.4211 39.0038 44.2411C39.0927 44.1563 39.2026 44.0968 39.3221 44.0687C39.4416 44.0405 39.5665 44.0448 39.6838 44.0811C40.0457 44.1929 40.3845 44.369 40.6838 44.6011L45.2338 48.4411C45.2302 48.3969 45.2364 48.3525 45.2519 48.311C45.2675 48.2695 45.292 48.232 45.3238 48.2011L45.4838 48.0611L45.2638 47.8211C45.1738 47.7111 44.9238 47.4511 44.6438 47.1411C44.2038 46.6711 43.6438 46.1411 43.4538 45.8511C42.4538 44.6911 41.6838 43.7911 41.1938 43.1911C40.667 42.6205 40.2197 41.9814 39.8638 41.2911C39.7713 41.0839 39.7302 40.8575 39.7438 40.6311C39.754 40.5302 39.7839 40.4324 39.832 40.3432C39.88 40.2539 39.9452 40.1751 40.0238 40.1111C40.1595 39.9656 40.3383 39.8675 40.5338 39.8311C40.7261 39.8128 40.9198 39.8473 41.0938 39.9311C41.6564 40.2219 42.1695 40.5999 42.6138 41.0511C43.2438 41.6111 44.3838 42.7311 45.2338 43.5611C45.5238 43.8411 46.0938 44.4311 46.5738 44.9211L47.3038 45.6611L47.6238 45.9711L47.7638 45.8311L47.9238 45.7011L47.6838 45.4411C47.5738 45.3011 47.2538 44.9611 46.9138 44.5911L45.9138 43.4411L43.9838 41.2511C43.5876 40.829 43.2511 40.3546 42.9838 39.8411C42.8795 39.6362 42.8215 39.4109 42.8138 39.1811C42.8166 39.087 42.8394 38.9946 42.8808 38.9101C42.9222 38.8256 42.9812 38.7509 43.0538 38.6911C43.154 38.5864 43.2826 38.5134 43.4238 38.4811C43.5994 38.4546 43.7789 38.4753 43.9438 38.5411C44.7003 38.8865 45.3803 39.3795 45.9438 39.9911L47.9438 41.9911L49.0938 43.1411L49.8838 43.9111L50.0238 43.7711C50.047 43.7423 50.0784 43.7214 50.1138 43.7111C50.1532 43.7013 50.1944 43.7013 50.2338 43.7111L47.4838 40.7111C47.035 40.2772 46.7164 39.7265 46.5638 39.1211C46.5506 38.9881 46.5702 38.8538 46.6207 38.7301C46.6713 38.6063 46.7513 38.4968 46.8538 38.4111C46.937 38.3288 47.0405 38.2702 47.1538 38.2411C47.3195 38.2139 47.4896 38.2347 47.6438 38.3011C48.4297 38.7147 49.1344 39.2669 49.7238 39.9311L56.5238 47.1011C57.1338 47.8011 57.7038 48.4611 58.1438 49.1011C58.5338 49.6749 58.8686 50.2842 59.1438 50.9211L59.3638 51.5711C59.6138 52.2911 59.9638 53.2811 60.1538 53.9711C60.1636 54.0192 60.1614 54.069 60.1475 54.116C60.1335 54.1631 60.1082 54.2061 60.0738 54.2411L54.8238 59.2411C54.7761 59.263 54.7228 59.27 54.6711 59.2611C54.6193 59.2521 54.5715 59.2277 54.5338 59.1911ZM41.0538 52.7411C40.8917 52.7368 40.7299 52.757 40.5738 52.8011C40.4438 52.8511 40.4138 52.9011 40.4038 52.9211C40.3776 52.9886 40.3776 53.0635 40.4038 53.1311C40.4522 53.2472 40.5277 53.35 40.6238 53.4311C40.7451 53.5434 40.8794 53.6407 41.0238 53.7211L41.1738 53.8011H41.2338L42.3538 54.2811L45.0638 55.4211C46.7638 56.1111 51.0638 57.4811 53.3638 58.2111L54.4938 58.5711L59.4938 53.7911C59.3038 53.1311 58.9938 52.2511 58.7638 51.5911L58.5438 50.9411C58.2883 50.3641 57.9804 49.8118 57.6238 49.2911C57.1938 48.7111 56.6238 48.0611 56.0338 47.3711L55.8938 47.2111L49.2538 40.2111C48.7259 39.6012 48.0882 39.0958 47.3738 38.7211C47.3147 38.7067 47.253 38.7067 47.1938 38.7211C47.0438 38.8711 47.0438 38.9111 47.0438 38.9911C47.185 39.4878 47.458 39.937 47.8338 40.2911L50.7138 43.4711C50.8062 43.6224 50.8428 43.8013 50.8173 43.9767C50.7917 44.1521 50.7056 44.3131 50.5739 44.4318C50.4422 44.5504 50.2731 44.6193 50.096 44.6265C49.9188 44.6337 49.7447 44.5787 49.6038 44.4711L48.6038 43.4711L47.4738 42.3611L45.4738 40.3611C44.9812 39.8122 44.3869 39.3639 43.7238 39.0411C43.6481 39.0246 43.5696 39.0246 43.4938 39.0411C43.4642 39.0342 43.4334 39.0342 43.4038 39.0411C43.3338 39.1111 43.3338 39.1211 43.3338 39.1511C43.3438 39.2948 43.3848 39.4347 43.4538 39.5611C43.7033 40.0286 44.0162 40.4594 44.3838 40.8411L46.2738 43.0411L47.2738 44.1811C47.6238 44.5611 47.9438 44.9011 48.0538 45.0411L48.4438 45.4811C48.5362 45.6324 48.5728 45.8113 48.5473 45.9867C48.5217 46.1621 48.4356 46.3231 48.3039 46.4418C48.1722 46.5605 48.0031 46.6293 47.826 46.6365C47.6488 46.6437 47.4747 46.5887 47.3338 46.4811L46.8138 45.9711L46.1738 45.2911L44.8438 43.9411C44.1538 43.2611 42.8438 42.0311 42.2438 41.4511C41.8394 41.0515 41.3777 40.7145 40.8738 40.4511C40.7884 40.4307 40.6993 40.4307 40.6138 40.4511C40.5326 40.4671 40.4589 40.5093 40.4038 40.5711C40.3505 40.6191 40.3123 40.6817 40.2938 40.7511C40.2985 40.8889 40.329 41.0246 40.3838 41.1511C40.7103 41.7823 41.1097 42.373 41.5738 42.9111C42.0538 43.5111 42.8038 44.4011 43.8138 45.5511C44.0438 45.8111 44.5638 46.3711 44.9938 46.8311L45.6238 47.5211L45.9938 47.9411C46.1129 48.0805 46.1783 48.2578 46.1783 48.4411C46.1783 48.6244 46.1129 48.8017 45.9938 48.9411C45.864 49.0721 45.691 49.1514 45.507 49.1643C45.323 49.1772 45.1406 49.1227 44.9938 49.0111L40.2938 45.0111C40.0499 44.8233 39.7761 44.6779 39.4838 44.5811H39.3838C39.4031 44.6711 39.4334 44.7584 39.4738 44.8411C39.7738 45.4229 40.1693 45.9502 40.6438 46.4011L46.7138 52.7711C46.8339 52.8917 46.91 53.0492 46.9299 53.2183C46.9498 53.3873 46.9123 53.5582 46.8236 53.7034C46.7348 53.8487 46.5999 53.9599 46.4403 54.0193C46.2808 54.0787 46.106 54.0829 45.9438 54.0311L41.9438 52.8311H41.7038C41.5106 52.7848 41.3126 52.7613 41.1138 52.7611L41.0538 52.7411Z" fill="white"/>
<path d="M22.9439 46.3609L23.0439 46.2609L23.4239 45.8809L25.4839 43.7909C26.4339 42.8709 27.4839 41.7909 28.0939 41.2909C28.5206 40.8633 29.0095 40.5025 29.5439 40.2209C29.6693 40.1531 29.8123 40.1252 29.9539 40.1409C30.0938 40.163 30.2213 40.2339 30.3139 40.3409C30.4195 40.4291 30.4875 40.5543 30.5039 40.6909C30.5198 40.8734 30.4852 41.0567 30.4039 41.2209C30.0726 41.8803 29.6594 42.4951 29.1739 43.0509C28.5839 43.7909 27.6839 44.8409 26.9239 45.7009C26.5439 46.1309 25.3639 47.4009 25.1139 47.7009L24.8239 48.0209L24.7439 48.1109L25.1039 48.4409L24.7439 48.1109C24.6617 48.2011 24.6161 48.3188 24.6161 48.4409C24.6161 48.563 24.6617 48.6807 24.7439 48.7709C24.8325 48.8524 24.9485 48.8977 25.0689 48.8977C25.1893 48.8977 25.3053 48.8524 25.3939 48.7709L30.0839 44.7709C30.3604 44.5587 30.6717 44.3962 31.0039 44.2909C31.0723 44.2649 31.1464 44.2577 31.2185 44.2701C31.2906 44.2824 31.358 44.3137 31.4139 44.3609C31.4139 44.3609 31.5239 44.5209 31.3339 44.9309C31.0221 45.5365 30.6134 46.0871 30.1239 46.5609L24.0439 52.9409C23.9701 53.0167 23.924 53.1152 23.9131 53.2205C23.9022 53.3257 23.9272 53.4316 23.9839 53.5209C24.0393 53.612 24.1234 53.6821 24.223 53.7201C24.3225 53.7581 24.432 53.7619 24.5339 53.7309L28.5339 52.5309H28.5839H28.7839C28.9915 52.4894 29.2023 52.466 29.4139 52.4609C29.6305 52.4433 29.8484 52.4705 30.0539 52.5409C30.1923 52.5781 30.3107 52.6678 30.3839 52.7909C30.4146 52.8584 30.4305 52.9317 30.4305 53.0059C30.4305 53.0801 30.4146 53.1534 30.3839 53.2209C30.3262 53.3813 30.226 53.5231 30.0939 53.6309C29.9589 53.76 29.8076 53.8709 29.6439 53.9609L29.4839 54.0509H29.4239L29.1939 54.1509L28.3539 54.5109C27.6539 54.8109 26.6839 55.2209 25.6339 55.6509C23.5339 56.5109 17.5439 58.3609 16.0339 58.8509L10.7839 53.8509C10.9739 53.1709 11.3139 52.1909 11.5639 51.4709C11.6639 51.2109 11.7439 50.9809 11.7939 50.8209C12.0426 50.2089 12.3507 49.6227 12.7139 49.0709C13.1439 48.4909 13.7139 47.8709 14.3239 47.1409L14.4639 46.9809L21.1139 39.9809C21.6746 39.3403 22.3537 38.814 23.1139 38.4309C23.2163 38.381 23.3305 38.3602 23.4439 38.3709C23.5061 38.3874 23.5619 38.4222 23.6039 38.4709C23.6801 38.524 23.7407 38.5965 23.7794 38.6809C23.8181 38.7653 23.8335 38.8585 23.8239 38.9509C23.676 39.5012 23.3783 39.9997 22.9639 40.3909L20.0839 43.5609C19.9951 43.6537 19.9468 43.778 19.9496 43.9065C19.9524 44.035 20.0061 44.1571 20.0989 44.2459C20.1918 44.3348 20.3161 44.3831 20.4445 44.3803C20.573 44.3775 20.6951 44.3237 20.7839 44.2309L20.4439 43.8809L20.7839 44.2309L20.9839 44.0309L21.7039 43.3309C22.3039 42.7309 23.9739 41.0409 24.8639 40.1809C25.3855 39.6055 26.0138 39.1368 26.7139 38.8009C26.8323 38.7452 26.9651 38.7277 27.0939 38.7509C27.1773 38.7687 27.2538 38.8104 27.3139 38.8709C27.3574 38.9035 27.3927 38.9458 27.417 38.9944C27.4413 39.043 27.4539 39.0966 27.4539 39.1509C27.4462 39.34 27.3948 39.5248 27.3039 39.6909C27.039 40.1848 26.702 40.6364 26.3039 41.0309L24.4739 43.2209C24.1039 43.6509 22.9139 44.9309 22.6639 45.2209L22.3539 45.5709L22.2739 45.6709L22.6339 45.9909L22.9439 46.3609ZM22.9439 46.3609C22.9006 46.4069 22.8486 46.4438 22.791 46.4697C22.7334 46.4956 22.6712 46.5099 22.6081 46.5117C22.5449 46.5136 22.482 46.503 22.423 46.4805C22.3639 46.4581 22.3099 46.4242 22.2639 46.3809C22.218 46.3376 22.181 46.2856 22.1551 46.228C22.1292 46.1703 22.115 46.1082 22.1131 46.045C22.1112 45.9819 22.1218 45.919 22.1443 45.86C22.1667 45.8009 22.2006 45.7469 22.2439 45.7009L22.6039 46.0209L22.9439 46.3609Z" fill="white"/>
<path d="M16.0338 59.1908C15.9991 59.1924 15.9644 59.187 15.9317 59.175C15.8991 59.163 15.8692 59.1446 15.8438 59.1208L10.5938 54.1208C10.5594 54.0857 10.5341 54.0428 10.5202 53.9957C10.5062 53.9487 10.504 53.8989 10.5138 53.8508C10.6938 53.1808 11.0338 52.2308 11.2738 51.5308V51.4508C11.3638 51.1808 11.4438 50.9608 11.5038 50.8008C11.7727 50.1608 12.1079 49.5509 12.5038 48.9808C12.9338 48.3908 13.5038 47.7608 14.1138 47.0408L14.2638 46.8608L20.9138 39.8608C21.5085 39.198 22.2161 38.6461 23.0038 38.2308C23.1581 38.1644 23.3281 38.1436 23.4938 38.1708C23.6071 38.1998 23.7107 38.2585 23.7938 38.3408C23.8964 38.4265 23.9764 38.536 24.0269 38.6598C24.0775 38.7835 24.097 38.9177 24.0838 39.0508C23.9313 39.6561 23.6126 40.2068 23.1638 40.6408L20.4138 43.6408C20.4541 43.6374 20.4946 43.6429 20.5326 43.6567C20.5706 43.6705 20.6051 43.6923 20.6338 43.7208L20.7738 43.8608L21.5638 43.0908L22.7138 41.9408C23.4038 41.2508 24.2038 40.4508 24.7138 39.9408C25.2605 39.3322 25.9236 38.8391 26.6638 38.4908C26.8288 38.425 27.0082 38.4042 27.1838 38.4308C27.3228 38.4632 27.4505 38.5323 27.5538 38.6308C27.6272 38.6921 27.6866 38.7685 27.728 38.8548C27.7694 38.941 27.7918 39.0351 27.7938 39.1308C27.7912 39.3613 27.7329 39.5877 27.6238 39.7908C27.3555 40.3036 27.0191 40.7779 26.6238 41.2008L24.6938 43.3908L23.6938 44.5208L22.9038 45.3908L22.6738 45.6508L22.9738 45.9408L23.2938 45.6308L24.0738 44.8408L25.3638 43.5308C26.2138 42.6908 27.3638 41.5308 27.9838 41.0208C28.4282 40.5696 28.9412 40.1915 29.5038 39.9008C29.6782 39.818 29.8716 39.7835 30.0638 39.8008C30.2594 39.8372 30.4381 39.9353 30.5738 40.0808C30.6524 40.1448 30.7176 40.2236 30.7657 40.3129C30.8137 40.4021 30.8437 40.4999 30.8538 40.6008C30.8727 40.8275 30.8313 41.0552 30.7338 41.2608C30.3997 41.9524 29.9724 42.5951 29.4638 43.1708C28.9738 43.7808 28.2138 44.6808 27.2038 45.8308L26.0038 47.1408L25.3938 47.8008L25.1838 48.0408L25.3338 48.1808C25.3633 48.2071 25.3866 48.2395 25.4021 48.2758C25.4177 48.3121 25.4251 48.3513 25.4238 48.3908L29.9538 44.5708C30.2514 44.3313 30.5903 44.1482 30.9538 44.0308C31.0663 43.9926 31.1869 43.9854 31.3031 44.0101C31.4192 44.0347 31.5266 44.0902 31.6138 44.1708C31.7938 44.3708 31.7738 44.6608 31.6138 45.0508C31.282 45.6863 30.8536 46.2666 30.3438 46.7708L24.2738 53.1908C24.2479 53.2254 24.2338 53.2675 24.2338 53.3108C24.2338 53.354 24.2479 53.3961 24.2738 53.4308C24.2951 53.4707 24.33 53.5017 24.3722 53.5182C24.4144 53.5347 24.461 53.5356 24.5038 53.5208L28.5038 52.3208H28.5838H28.8038C29.0271 52.2707 29.255 52.2439 29.4838 52.2408C29.7306 52.2254 29.9781 52.2559 30.2138 52.3308C30.4146 52.3975 30.5828 52.5376 30.6847 52.723C30.7867 52.9084 30.8149 53.1255 30.7638 53.3308C30.6863 53.5354 30.5592 53.7175 30.3938 53.8608C30.2465 54.0011 30.0818 54.1221 29.9038 54.2208L29.7238 54.3208H29.6538L29.5238 54.0708L29.5738 54.3508L28.5038 54.8108C27.8038 55.1208 26.8338 55.5208 25.7838 55.9508C24.0738 56.6608 19.7838 58.0208 17.4538 58.7608L16.1638 59.1708L16.0338 59.1908ZM11.1038 53.8208L16.1038 58.6008L17.2738 58.2308C19.5838 57.5008 23.8738 56.1408 25.5638 55.4508L28.2738 54.2908L29.2738 53.8508H29.3438H29.3938L29.5438 53.7708C29.683 53.6872 29.8137 53.59 29.9338 53.4808C30.0279 53.3978 30.103 53.2955 30.1538 53.1808C30.1801 53.1132 30.1801 53.0383 30.1538 52.9708C30.1538 52.9708 30.1538 52.9008 29.9838 52.8508C29.8083 52.8014 29.6259 52.7812 29.4438 52.7908C29.2451 52.791 29.0471 52.8145 28.8538 52.8608H28.6838L28.5538 52.6108L28.6138 52.8808L24.6138 54.0808C24.4517 54.1326 24.2768 54.1284 24.1173 54.069C23.9578 54.0096 23.8229 53.8983 23.7341 53.7531C23.6453 53.6079 23.6079 53.437 23.6278 53.268C23.6477 53.0989 23.7238 52.9414 23.8438 52.8208L29.9238 46.4508C30.3927 45.9973 30.7845 45.4704 31.0838 44.8908C31.1243 44.8081 31.1545 44.7208 31.1738 44.6308H31.0738C30.7749 44.7309 30.4944 44.8795 30.2438 45.0708L25.5738 49.0108C25.428 49.15 25.2327 49.2256 25.0311 49.2209C24.8295 49.2162 24.6381 49.1316 24.4988 48.9858C24.3596 48.8399 24.284 48.6447 24.2887 48.4431C24.2934 48.2415 24.378 48.05 24.5238 47.9108L24.8938 47.5008L25.5338 46.8008L26.7238 45.5008C27.7238 44.3508 28.4838 43.5008 28.9638 42.8608C29.4302 42.3244 29.8298 41.7334 30.1538 41.1008C30.2139 40.976 30.2446 40.8392 30.2438 40.7008C30.2254 40.6314 30.1872 40.5688 30.1338 40.5208C30.0788 40.459 30.005 40.4168 29.9238 40.4008C29.8383 40.3811 29.7494 40.3811 29.6638 40.4008C29.1631 40.6691 28.702 41.0057 28.2938 41.4008C27.6938 41.9408 26.5438 43.0608 25.6938 43.8908L24.4438 45.2908L23.6538 46.0808L23.1838 46.5608C23.0429 46.6684 22.8689 46.7234 22.6917 46.7162C22.5146 46.709 22.3455 46.6401 22.2138 46.5215C22.0821 46.4028 21.996 46.2418 21.9704 46.0664C21.9448 45.8909 21.9814 45.7121 22.0738 45.5608L22.4838 45.1008C22.6038 44.9608 22.9238 44.6008 23.2838 44.2208L24.2838 43.1008L26.2138 40.9108C26.5814 40.5291 26.8944 40.0983 27.1438 39.6308C27.2129 39.5043 27.2538 39.3645 27.2638 39.2208C27.2638 39.2208 27.2638 39.2208 27.2638 39.1408C27.2316 39.1084 27.1945 39.0814 27.1538 39.0608C27.0747 39.0443 26.993 39.0443 26.9138 39.0608C26.2507 39.3836 25.6564 39.8319 25.1638 40.3808C24.6438 40.8908 23.8438 41.6908 23.1638 42.3808L22.0038 43.5308L21.0038 44.5308C20.8629 44.6384 20.6889 44.6934 20.5117 44.6862C20.3346 44.679 20.1655 44.6101 20.0338 44.4915C19.9021 44.3728 19.816 44.2118 19.7904 44.0364C19.7648 43.8609 19.8014 43.6821 19.8938 43.5308L22.7438 40.2908C23.1119 39.9401 23.3809 39.4986 23.5238 39.0108C23.5238 38.9308 23.5238 38.8908 23.3938 38.7608C23.2638 38.6308 23.3238 38.7608 23.1938 38.7608C22.4669 39.1253 21.8154 39.6241 21.2738 40.2308L14.4938 47.3808C13.8538 48.1108 13.3238 48.7308 12.9038 49.3008C12.5578 49.8332 12.26 50.3954 12.0138 50.9808L11.7938 51.6208V51.7008C11.5838 52.3408 11.2738 53.1908 11.1038 53.8208Z" fill="white"/>
<path d="M20.4052 51.1119L23.9099 50.2905L20.3595 49.4567L19.5103 46.208L18.6578 49.4567L15.1074 50.2905L18.6121 51.1119L19.5103 54.5335L20.4052 51.1119Z" fill="#00C65E"/>
<path d="M51.1482 51.1119L54.6528 50.2905L51.1024 49.4567L50.2532 46.208L49.4007 49.4567L45.8503 50.2905L49.355 51.1119L50.2532 54.5335L51.1482 51.1119Z" fill="#00C65E"/>
<path d="M61.8338 16.0506C60.7338 10.8706 53.2738 2.88061 45.5338 0.440612C39.3538 -1.55939 36.2638 16.5106 35.2038 24.0006L35.1338 24.5206C41.3738 24.1706 62.7638 20.4306 61.8338 16.0506ZM35.2738 24.2906C36.9838 17.8606 40.7738 5.96061 46.6838 7.86061C47.2619 7.96979 47.7874 8.26751 48.1783 8.7072C48.5691 9.14689 48.8031 9.70373 48.8438 10.2906C49.2738 14.5506 41.5038 18.9006 35.2738 24.2906Z" fill="#00C65E"/>
<path d="M35.0338 24.0009C33.9738 16.5109 30.8838 -1.51908 24.7138 0.440917C16.9738 2.88092 9.5038 10.8709 8.4038 16.0509C7.4838 20.4309 28.8638 24.1709 35.1038 24.5209V24.5809V24.5209L35.0338 24.0009ZM21.3938 10.2909C21.421 9.69488 21.6478 9.12529 22.0377 8.67369C22.4276 8.22208 22.9581 7.91469 23.5438 7.80092C29.4538 5.90092 33.2438 17.8009 34.9538 24.2309C28.7338 18.9009 20.9838 14.5509 21.3938 10.2909Z" fill="#00C65E"/>
</svg>
