<svg width="71" height="67" viewBox="0 0 71 67" fill="none" xmlns="http://www.w3.org/2000/svg">
<path d="M61.3559 11.8691H13.514C10.9462 11.8691 8.8645 13.9508 8.8645 16.5187V48.7706C8.8645 51.3385 10.9462 53.4201 13.514 53.4201H61.3559C63.9238 53.4201 66.0055 51.3385 66.0055 48.7706V16.5187C66.0055 13.9508 63.9238 11.8691 61.3559 11.8691Z" fill="white"/>
<path d="M61.3627 54.0901H13.5141C12.1044 54.0901 10.7524 53.5306 9.75499 52.5345C8.75758 51.5383 8.19636 50.187 8.19458 48.7773V16.5187C8.2051 15.1111 8.76892 13.7642 9.76425 12.7689C10.7596 11.7736 12.1065 11.2097 13.5141 11.1992H61.3627C62.7702 11.2097 64.1172 11.7736 65.1125 12.7689C66.1078 13.7642 66.6717 15.1111 66.6822 16.5187V48.7773C66.6804 50.187 66.1192 51.5383 65.1218 52.5345C64.1244 53.5306 62.7723 54.0901 61.3627 54.0901ZM13.5141 12.5525C12.4619 12.563 11.4557 12.9856 10.7117 13.7297C9.96761 14.4738 9.54497 15.4799 9.5345 16.5321V48.7773C9.54671 49.8284 9.97012 50.8328 10.714 51.5754C11.4579 52.318 12.463 52.7398 13.5141 52.7502H61.3627C62.4137 52.7398 63.4189 52.318 64.1628 51.5754C64.9066 50.8328 65.33 49.8284 65.3423 48.7773V16.5187C65.3318 15.4665 64.9091 14.4604 64.1651 13.7163C63.421 12.9722 62.4149 12.5496 61.3627 12.5391L13.5141 12.5525Z" fill="#00C65E"/>
<path d="M4.56353 53.334H69.6703C69.7378 53.334 69.8026 53.3608 69.8503 53.4085C69.8981 53.4563 69.9249 53.5211 69.9249 53.5886V55.719C69.9249 56.1028 69.7724 56.4709 69.5011 56.7423C69.2297 57.0137 68.8616 57.1662 68.4778 57.1662H5.75606C5.37226 57.1662 5.00419 57.0137 4.7328 56.7423C4.46141 56.4709 4.30895 56.1028 4.30895 55.719V53.602C4.30713 53.5674 4.31237 53.5329 4.32434 53.5004C4.33632 53.468 4.35478 53.4383 4.3786 53.4132C4.40243 53.3881 4.43111 53.3682 4.46291 53.3546C4.4947 53.3409 4.52894 53.3339 4.56353 53.334Z" fill="#1E7836"/>
<rect x="14.2053" y="15.4961" width="31.1101" height="10.3721" rx="1" fill="#FFB762"/>
<rect x="14.2053" y="27.3711" width="31.1101" height="10.3721" rx="1" fill="#FFB762"/>
<rect x="14.2053" y="39.4209" width="31.1101" height="10.3721" rx="1" fill="#FFB762"/>
<rect x="50.2991" y="47.5908" width="31.1101" height="10.3721" rx="1" transform="rotate(-90 50.2991 47.5908)" fill="#CCEFDB"/>
<path d="M64.2017 60.4253L70.4799 59.0513L64.1215 57.6622L62.597 52.2314L61.0726 57.6622L54.7141 59.0513L60.9873 60.4253L62.597 66.1469L64.2017 60.4253Z" fill="#FD9558"/>
<path d="M15.3655 10.8341L23.2829 9.08561L15.2674 7.31976L13.3399 0.417969L11.4183 7.31976L3.39697 9.08561L11.3144 10.8341L13.3399 18.0995L15.3655 10.8341Z" fill="#FD9558"/>
<path d="M4.02596 47.234L6.45791 46.6177L3.99246 45.9946L3.39619 43.5693L2.80663 45.9946L0.334473 46.6177L2.77313 47.234L3.39619 49.7933L4.02596 47.234Z" fill="#00C65E"/>
</svg>
