<svg width="56" height="64" viewBox="0 0 56 64" fill="none" xmlns="http://www.w3.org/2000/svg">
<path d="M31.1665 57.6393H0.416504V3.85926C0.422227 3.16748 0.682035 2.50195 1.1465 1.98926C1.41013 1.67827 1.73783 1.42791 2.10718 1.25531C2.47654 1.08271 2.87882 0.99196 3.2865 0.989258L28.2865 0.989258C28.6629 0.989256 29.0356 1.06356 29.3833 1.20792C29.7309 1.35227 30.0467 1.56383 30.3124 1.83046C30.5781 2.0971 30.7885 2.41357 30.9317 2.76171C31.0748 3.10986 31.1478 3.48284 31.1465 3.85926L31.1665 57.6393Z" fill="#00C65E"/>
<path d="M31.1665 57.6388H0.416504V3.85881C0.416504 2.26881 2.7865 28.6988 8.4965 36.7288C10.7934 39.8782 13.8664 42.3793 17.4165 43.9888C21.7666 45.8489 26.4556 46.7853 31.1865 46.7388L31.1665 57.6388Z" fill="#08A636"/>
<path d="M21.8467 7.8291V14.2091H26.0367V7.8291H21.8467Z" fill="white"/>
<path d="M9.9566 7.8291H5.7666V14.2091H9.9566V7.8291Z" fill="white"/>
<path d="M13.8066 7.8291V14.2091H17.9966V7.8291H13.8066Z" fill="white"/>
<path d="M21.8467 18.5596V24.9896H26.0367V18.5596H21.8467Z" fill="white"/>
<path d="M9.9566 18.5596H5.7666V24.9396H9.9566V18.5596Z" fill="white"/>
<path d="M13.8066 18.5596V24.9896H17.9966V18.5596H13.8066Z" fill="white"/>
<path d="M21.8467 29.2891V35.6691H26.0367V29.2891H21.8467Z" fill="white"/>
<path d="M13.8066 29.2891V35.6691H17.9966V29.2891H13.8066Z" fill="white"/>
<path d="M21.8467 42.1094V48.4894H26.0367V42.1094H21.8467Z" fill="white"/>
<path d="M23.6365 26.8594H48.5065C49.0979 26.8594 49.6651 27.0943 50.0834 27.5125C50.5016 27.9307 50.7365 28.4979 50.7365 29.0894V62.8994H21.4165V29.0894C21.4165 28.4997 21.6501 27.934 22.0661 27.5161C22.4822 27.0981 23.0468 26.862 23.6365 26.8594Z" fill="white"/>
<path d="M26.5265 28.9093H48.8865C49.4373 28.9119 49.9649 29.1319 50.3544 29.5214C50.7439 29.9109 50.9639 30.4384 50.9665 30.9893V63.7493H24.4165V30.9893C24.4178 30.714 24.4735 30.4416 24.5804 30.1879C24.6872 29.9342 24.8432 29.7041 25.0392 29.5108C25.2353 29.3175 25.4676 29.1649 25.7229 29.0616C25.9781 28.9584 26.2512 28.9066 26.5265 28.9093Z" fill="#FFB762"/>
<path d="M41.6765 35.2891V39.7991H44.9465V35.2891H41.6765Z" fill="white"/>
<path d="M33.7366 35.2891H30.4666V39.7991H33.7366V35.2891Z" fill="white"/>
<path d="M36.0767 35.2891V39.7991H39.3367V35.2891H36.0767Z" fill="white"/>
<path d="M41.6765 42.8691V47.3791H44.9465V42.8691H41.6765Z" fill="white"/>
<path d="M33.7366 42.8691H30.4666V47.3791H33.7366V42.8691Z" fill="white"/>
<path d="M36.0767 42.8691V47.3791H39.3367V42.8691H36.0767Z" fill="white"/>
<path d="M41.6765 50.4492V54.9892H44.9465V50.4492H41.6765Z" fill="white"/>
<path d="M33.7366 50.4492H30.4666V54.9592H33.7366V50.4492Z" fill="white"/>
<path d="M36.0767 50.4492V54.9892H39.3367V50.4492H36.0767Z" fill="white"/>
<path d="M48.2066 10.7193L55.2066 9.08926L48.2066 7.43926L46.4166 0.989258L44.7466 7.43926L37.7466 9.08926L44.7466 10.7193L46.4166 17.5193L48.2066 10.7193Z" fill="#F89358"/>
<path d="M38.2865 20.9895L42.4165 19.9895L38.2765 18.9895L37.2765 15.1895L36.2765 18.9895L32.1265 19.9895L36.2265 20.9895L37.2265 24.9895L38.2865 20.9895Z" fill="#00C65E"/>
</svg>
