<svg width="68" height="66" viewBox="0 0 68 66" fill="none" xmlns="http://www.w3.org/2000/svg">
<path d="M30.827 59.7068C35.3946 59.7068 39.0974 56.004 39.0974 51.4364C39.0974 46.8688 35.3946 43.166 30.827 43.166C26.2594 43.166 22.5566 46.8688 22.5566 51.4364C22.5566 56.004 26.2594 59.7068 30.827 59.7068Z" stroke="#FD9558" stroke-width="6" stroke-miterlimit="10"/>
<path d="M31.1936 56.2066C34.1445 56.2066 36.5367 53.8144 36.5367 50.8635C36.5367 47.9127 34.1445 45.5205 31.1936 45.5205C28.2427 45.5205 25.8506 47.9127 25.8506 50.8635C25.8506 53.8144 28.2427 56.2066 31.1936 56.2066Z" stroke="#FFB762" stroke-width="2" stroke-miterlimit="10"/>
<path d="M52.5915 33.1629C48.3865 31.8488 42.6785 32.6701 38.0875 31.3642C33.5458 29.8777 27.5832 24.6379 23.37 23.3402C18.0399 21.6977 12.6933 23.7016 11.3956 27.8327C10.098 31.9638 13.4817 36.1031 18.5162 39.7989C23.0837 42.9256 28.0575 45.4125 33.2994 47.1905C37.8532 48.5624 42.5656 49.3381 47.3188 49.4983C53.5688 49.4572 58.669 47.7572 59.942 43.6261C61.215 39.495 57.9299 34.8136 52.5915 33.1629ZM24.5691 31.9556C24.0681 33.1546 22.3763 33.5981 20.7912 32.9329C19.2061 32.2676 18.3273 30.7565 18.8365 29.5574C19.3457 28.3583 21.0293 27.9148 22.6144 28.5718C24.1995 29.2289 25.029 30.7483 24.5691 31.9556ZM52.4929 40.5791C51.9919 41.7864 50.3001 42.2217 48.7232 41.5646C47.1463 40.9076 46.2593 39.3882 46.7685 38.1891C47.2777 36.9901 48.9614 36.5466 50.5465 37.2036C52.1316 37.8606 52.9775 39.38 52.4929 40.5791Z" fill="#00C65E"/>
<path d="M38.3827 31.3487C36.6088 30.7991 34.9075 30.038 33.3154 29.0819C31.6728 28.1785 30.1123 27.2258 28.5272 26.2977C26.9944 25.3446 25.3646 24.5573 23.6652 23.9489C21.9898 23.4277 20.2186 23.2901 18.4829 23.5464C16.7881 23.7554 15.2005 24.4874 13.9411 25.6407C13.3547 26.1977 12.8988 26.8776 12.6063 27.6316C12.3138 28.3856 12.1919 29.195 12.2493 30.0018C12.5024 31.6779 13.242 33.2428 14.3764 34.5024C15.519 35.8818 16.7955 37.1446 18.1872 38.2721L19.2467 39.0934C19.5916 39.3562 19.9448 39.6026 20.3226 39.8572C21.0699 40.3582 21.8502 40.8346 22.6304 41.3027C24.199 42.2307 25.817 43.0931 27.4514 43.9226C29.0857 44.7521 30.7365 45.5159 32.4366 46.1729C34.1526 46.8329 35.9149 47.3655 37.7093 47.7662C41.2584 48.6326 44.897 49.0791 48.5503 49.0967C50.3835 49.0843 52.2077 48.8386 53.979 48.3658C55.766 47.9219 57.4161 47.0446 58.7835 45.8116C57.4744 47.1457 55.8503 48.1287 54.0611 48.6697C52.2812 49.2254 50.4375 49.5511 48.5749 49.6388C44.8482 49.7948 41.1168 49.4746 37.4711 48.6861C35.6372 48.3329 33.8269 47.8666 32.0506 47.2899C30.2836 46.6765 28.5485 45.9747 26.8518 45.1874C25.1682 44.3661 23.5092 43.5448 21.8748 42.6496C21.0535 42.1897 20.2322 41.7216 19.4602 41.2124C19.066 40.9495 18.6389 40.6785 18.2776 40.3911L17.177 39.5041C15.6794 38.322 14.3038 36.9931 13.0706 35.5372C11.7327 34.0193 10.8752 32.1386 10.6067 30.1332C10.5295 29.0912 10.6905 28.0454 11.0776 27.0749C11.4646 26.1044 12.0675 25.2348 12.8406 24.532C14.3527 23.2016 16.2415 22.3749 18.2447 22.1667C20.1867 21.9514 22.1522 22.1788 23.9937 22.8319C25.735 23.543 27.3885 24.4524 28.9215 25.5422C32.0916 27.5707 34.9662 29.9114 38.3827 31.3487Z" fill="#08A636"/>
<path d="M24.822 31.9395C24.6651 32.2708 24.4362 32.5628 24.152 32.7944C23.8679 33.026 23.5356 33.1913 23.1795 33.2782C22.4295 33.4836 21.638 33.4836 20.8881 33.2782C20.0812 33.0733 19.358 32.6227 18.8184 31.9887C18.4901 31.619 18.2728 31.1642 18.1914 30.6765C18.11 30.1888 18.1678 29.688 18.3582 29.2317C18.5486 28.7754 18.8639 28.382 19.2678 28.0968C19.6718 27.8117 20.1479 27.6462 20.6417 27.6195C21.484 27.5431 22.3283 27.742 23.0481 28.1862C23.7195 28.5776 24.2706 29.1457 24.6414 29.8288C24.8265 30.145 24.9389 30.4986 24.9701 30.8637C25.0014 31.2288 24.9508 31.5964 24.822 31.9395ZM24.822 31.9395C24.9426 31.6049 24.9696 31.2438 24.9001 30.895C24.8307 30.5462 24.6674 30.223 24.4278 29.9602C23.9766 29.4451 23.3721 29.0881 22.7031 28.9418C21.4219 28.6379 20.0996 29.1389 19.845 29.8616C19.5904 30.5843 20.0832 31.8491 21.2002 32.5472C21.7721 32.9206 22.4482 33.1018 23.1302 33.0646C23.4876 33.0475 23.8336 32.9338 24.1315 32.7357C24.4294 32.5376 24.6681 32.2624 24.822 31.9395Z" fill="#08A636"/>
<path d="M45.2554 1.22046C51.361 3.10564 54.5114 10.2897 52.346 17.2785C51.3055 20.6886 49.2785 23.7143 46.5207 25.9741C44.4389 27.7182 42.8811 30.005 42.02 32.5807C41.4086 34.4744 41.6039 36.9879 40.5849 38.0664C38.8865 39.8327 34.25 39.0514 33.2734 38.7542C32.2969 38.457 27.9915 36.453 27.6179 34.0583C27.3886 32.5977 28.9596 30.6615 29.5201 28.7254C30.2656 26.114 30.2656 23.3461 29.5201 20.7346C28.5199 17.3143 28.5524 13.6747 29.6135 10.2727C31.8298 3.27548 38.4959 -0.86852 44.5675 1.00817L45.2554 1.22046Z" fill="#FD9558"/>
<path d="M46.586 3.74456C52.491 5.56782 55.538 12.5159 53.4437 19.2751C52.4374 22.5733 50.4769 25.4996 47.8097 27.6851C45.7963 29.372 44.2897 31.5837 43.4569 34.0748C42.8655 35.9062 43.0544 38.3372 42.0689 39.3803C40.4263 41.0886 35.9421 40.333 34.9976 40.0455C34.0531 39.7581 29.8892 37.8198 29.5278 35.5038C29.3061 34.0912 30.8254 32.2186 31.3675 30.3461C32.0885 27.8204 32.0885 25.1434 31.3675 22.6178C30.4002 19.3098 30.4316 15.7897 31.4578 12.4995C33.6014 5.73208 40.0485 1.72419 45.9207 3.53924L46.586 3.74456Z" fill="#FFB762"/>
<path d="M35.4232 22.088C33.9276 20.4877 33.0916 18.3816 33.0825 16.1912C33.0065 13.9294 33.6132 11.6972 34.8237 9.78514C36.0547 7.78165 37.9542 6.27773 40.1867 5.53907C41.304 5.17407 42.4929 5.08392 43.6525 5.27626C44.7525 5.45981 45.77 5.9757 46.5681 6.75458C44.8351 7.08669 43.2187 7.86517 41.8785 9.01312C40.7444 10.0046 39.767 11.162 38.9794 12.4461C38.1355 13.7868 37.4414 15.2163 36.9097 16.7086C36.2759 18.4606 35.7789 20.2592 35.4232 22.088Z" fill="#FD9558"/>
<path d="M39.642 34.0817C39.8881 35.0575 40.4937 35.9043 41.3375 36.4527C41.44 32.8708 43.5639 29.5805 44.6131 28.3831C44.1711 28.124 43.6604 28.0064 43.1496 28.0461C42.6112 28.0884 42.0909 28.26 41.633 28.5463C40.7191 29.1224 40.0382 30.003 39.7106 31.0325C39.3821 32.0189 39.3582 33.0814 39.642 34.0817Z" fill="white"/>
<path d="M46.6856 38.3298C46.8282 37.9877 47.0418 37.6798 47.3122 37.4264C47.5826 37.173 47.9037 36.9798 48.2543 36.8597C49.0047 36.561 49.8211 36.4674 50.6196 36.5886C51.5213 36.7083 52.3554 37.1312 52.9849 37.7877C53.348 38.1646 53.6081 38.6284 53.7405 39.1346C53.9053 39.7093 53.8852 40.3213 53.683 40.884C53.4739 41.4362 53.1051 41.9137 52.6235 42.2555C52.1924 42.5514 51.6968 42.74 51.1781 42.8058C50.2729 42.9018 49.3617 42.6906 48.591 42.2062C47.9029 41.7803 47.337 41.1832 46.9484 40.4733C46.7558 40.1548 46.6328 39.7991 46.5875 39.4297C46.5422 39.0602 46.5756 38.6854 46.6856 38.3298ZM46.6856 38.3298C46.5818 38.6689 46.5769 39.0307 46.6714 39.3725C46.766 39.7144 46.9561 40.0222 47.2195 40.2598C47.7093 40.7149 48.3424 40.985 49.0099 41.0236C49.5744 41.0655 50.1402 40.9608 50.6524 40.7197C50.9665 40.5859 51.2167 40.3357 51.3505 40.0216C51.4495 39.6966 51.4171 39.3457 51.2602 39.0443C51.0244 38.5209 50.653 38.07 50.1843 37.7384C49.6439 37.3406 48.9819 37.1431 48.3118 37.18C47.9597 37.1983 47.6201 37.316 47.3323 37.5195C47.0445 37.723 46.8202 38.004 46.6856 38.3298Z" fill="#08A636"/>
<path d="M11.2064 59.2221L18.1559 57.5933L11.1157 55.94L9.43179 49.498L7.74137 55.94L0.701172 57.5933L7.65069 59.2221L9.43179 66.007L11.2064 59.2221Z" fill="#FD9558"/>
<path d="M63.4584 14.4999L67.5452 13.5385L63.4001 12.5649L62.4091 8.77441L61.4117 12.5649L57.2666 13.5385L61.3599 14.4999L62.4091 18.4924L63.4584 14.4999Z" fill="#1CBBC1"/>
</svg>
