<svg width="60" height="68" viewBox="0 0 60 68" fill="none" xmlns="http://www.w3.org/2000/svg">
<path d="M47.2184 10.8663L55.7817 9.13867L47.1086 7.39402L45.0288 0.568359L42.9428 7.39402L34.2698 9.13867L42.8331 10.8663L45.0288 18.0545L47.2184 10.8663Z" fill="#CCEFDB"/>
<path d="M7.98858 64.3412L11.8095 63.4594L7.94282 62.567L7.01619 59.0928L6.08956 62.567L2.2229 63.4594L6.03237 64.3412L7.01619 67.996L7.98858 64.3412Z" fill="#00C65E"/>
<path d="M55.3346 35.5162L54.9628 35.4783C53.0555 35.2613 44.484 34.7316 40.898 29.8988C38.6919 26.9511 39.3242 14.6211 39.3242 14.6211L25.2382 15.2133C25.2382 15.2133 21.7598 30.7356 21.2769 40.3803C21.2713 40.542 21.2755 40.7038 21.2894 40.8649C21.3025 41.8669 21.7106 42.8231 22.4249 43.5258C23.1393 44.2285 24.1022 44.6208 25.1042 44.6173L54.8748 43.8481C55.3738 43.829 55.8641 43.7118 56.3178 43.5032C56.7715 43.2946 57.1796 42.9986 57.519 42.6322C57.8583 42.2659 58.1221 41.8362 58.2953 41.3679C58.4686 40.8996 58.5479 40.4017 58.5287 39.9027C58.4799 38.0117 57.2254 35.8287 55.3346 35.5162Z" fill="#FD9558"/>
<path opacity="0.1" d="M25.4997 27.1766C26.7945 22.4554 25.5478 21.3086 27.213 18.413C28.8783 15.5174 34.2306 14.742 35.0321 16.6896C36.4113 20.02 32.7065 25.3074 34.0183 30.4462C35.3302 35.585 38.2999 34.9662 41.7633 35.7896C45.2267 36.6129 50.5552 38.9665 50.1009 41.9924C49.8243 43.7967 47.3855 47.3018 42.6241 47.0255C38.9101 46.8077 34.7437 43.0644 31.3742 42.5619C28.0047 42.0594 22.348 41.3593 22.9385 35.8766C23.5621 30.2029 24.4664 30.9782 25.4997 27.1766Z" fill="white"/>
<path d="M55.709 43.7602L22.052 44.6299L22.1541 48.5828L55.8111 47.7132L55.709 43.7602Z" fill="#FFB762" stroke="#F79358" stroke-width="1.28152" stroke-miterlimit="10"/>
<path d="M22.2354 51.6894C24.1666 51.6395 25.6918 50.0335 25.6419 48.1023C25.592 46.171 23.9859 44.6459 22.0547 44.6958C20.1234 44.7457 18.5983 46.3517 18.6482 48.283C18.6981 50.2142 20.3042 51.7393 22.2354 51.6894Z" fill="white" stroke="#2BAA51" stroke-width="1.28152" stroke-miterlimit="10"/>
<path d="M56.2886 50.8096C58.2199 50.7597 59.745 49.1536 59.6951 47.2224C59.6452 45.2911 58.0392 43.766 56.1079 43.8159C54.1767 43.8658 52.6515 45.4718 52.7014 47.4031C52.7513 49.3343 54.3574 50.8595 56.2886 50.8096Z" fill="#FFB762"/>
<path d="M55.1321 51.6543C57.0634 51.6044 58.5885 49.9983 58.5386 48.0671C58.4887 46.1359 56.8827 44.6107 54.9514 44.6606C53.0202 44.7105 51.495 46.3166 51.5449 48.2478C51.5948 50.1791 53.2009 51.7042 55.1321 51.6543Z" fill="#F69258"/>
<path d="M44.9449 51.1025C46.8761 51.0526 48.4013 49.4466 48.3514 47.5153C48.3014 45.5841 46.6954 44.059 44.7642 44.1089C42.8329 44.1588 41.3078 45.7648 41.3577 47.696C41.4076 49.6273 43.0136 51.1524 44.9449 51.1025Z" fill="#FFB762"/>
<path d="M43.7884 51.9473C45.7196 51.8974 47.2448 50.2913 47.1949 48.3601C47.145 46.4288 45.5389 44.9037 43.6077 44.9536C41.6764 45.0035 40.1513 46.6095 40.2012 48.5408C40.2511 50.472 41.8571 51.9972 43.7884 51.9473Z" fill="#F69258"/>
<path d="M39.3136 22.6938L32.1489 22.8789L32.185 24.2757L39.3497 24.0906L39.3136 22.6938Z" fill="#FD9558" stroke="white" stroke-miterlimit="10"/>
<path d="M33.5914 51.3965C35.5226 51.3466 37.0477 49.7405 36.9978 47.8093C36.9479 45.878 35.3419 44.3529 33.4106 44.4028C31.4794 44.4527 29.9543 46.0587 30.0042 47.99C30.0541 49.9212 31.6601 51.4464 33.5914 51.3965Z" fill="white" stroke="#2BAA51" stroke-width="1.28152" stroke-miterlimit="10"/>
<path d="M40.5258 29.4994L32.3254 29.7113L32.2893 28.3145L40.0431 28.1141L40.5258 29.4994Z" fill="#FD9558" stroke="white" stroke-miterlimit="10"/>
<path d="M39.1967 42.9505L38.8407 42.8367C37.0191 42.2311 28.7411 39.9456 26.2285 34.4773C24.6775 31.1381 27.8383 19.2034 27.8383 19.2034L13.9329 16.8787C13.9329 16.8787 7.32893 31.3504 4.86787 40.6883C4.82911 40.8453 4.79983 41.0045 4.78021 41.1651C4.58646 42.1482 4.78863 43.168 5.34277 44.0029C5.89691 44.8378 6.75822 45.4201 7.73942 45.6234L37.029 51.0086C37.5212 51.0927 38.0252 51.0792 38.5121 50.9686C38.9991 50.858 39.4595 50.6525 39.867 50.364C40.2746 50.0754 40.6213 49.7094 40.8874 49.2869C41.1535 48.8643 41.3337 48.3935 41.4179 47.9013C41.7599 46.0409 40.9825 43.646 39.1967 42.9505Z" fill="#FFB762"/>
<path opacity="0.3" d="M11.7222 28.6395C13.9626 24.2867 12.9791 22.9074 15.2056 20.4174C17.432 17.9273 22.8292 18.2721 23.212 20.3431C23.8749 23.8863 19.1595 28.2963 19.3837 33.5951C19.6079 38.894 22.6414 38.9008 25.8606 40.4205C29.0798 41.9402 33.8087 45.3418 32.7403 48.2091C32.0976 49.9176 28.9886 52.8446 24.3864 51.5925C20.7971 50.6137 17.492 46.0918 14.2985 44.9054C11.105 43.719 5.71413 41.8677 7.42233 36.6245C9.2023 31.2013 9.92735 32.1464 11.7222 28.6395Z" fill="white"/>
<path d="M37.8632 51.095L4.75 45.0068L4.03495 48.8959L37.1481 54.9841L37.8632 51.095Z" fill="#F89358" stroke="#FFB762" stroke-width="1.28152" stroke-miterlimit="10"/>
<path d="M3.47457 51.9527C5.37461 52.302 7.1981 51.0449 7.54744 49.1449C7.89678 47.2448 6.63969 45.4213 4.73965 45.072C2.83961 44.7227 1.01612 45.9797 0.666776 47.8798C0.317433 49.7798 1.57452 51.6033 3.47457 51.9527Z" fill="#F69257"/>
<path d="M36.9785 58.1128C38.8785 58.4622 40.702 57.2051 41.0513 55.305C41.4007 53.405 40.1436 51.5815 38.2436 51.2322C36.3435 50.8828 34.52 52.1399 34.1707 54.0399C33.8213 55.94 35.0784 57.7635 36.9785 58.1128Z" fill="#F69257"/>
<path d="M25.8164 56.0601C27.7164 56.4094 29.5399 55.1523 29.8892 53.2523C30.2386 51.3522 28.9815 49.5288 27.0814 49.1794C25.1814 48.8301 23.3579 50.0872 23.0086 51.9872C22.6592 53.8872 23.9163 55.7107 25.8164 56.0601Z" fill="#F69257"/>
<path d="M14.6464 54.0064C16.5465 54.3557 18.37 53.0986 18.7193 51.1986C19.0687 49.2985 17.8116 47.475 15.9115 47.1257C14.0115 46.7764 12.188 48.0335 11.8387 49.9335C11.4893 51.8335 12.7464 53.657 14.6464 54.0064Z" fill="#F69257"/>
<path d="M26.1634 27.1007L19.1145 25.8047L18.8618 27.179L25.9108 28.475L26.1634 27.1007Z" fill="#FFB762" stroke="white" stroke-miterlimit="10"/>
<path d="M25.9469 34.01L17.8789 32.5266L18.1316 31.1523L25.7602 32.5549L25.9469 34.01Z" fill="#FFB762" stroke="white" stroke-miterlimit="10"/>
</svg>
