<svg width="64" height="72" viewBox="0 0 64 72" fill="none" xmlns="http://www.w3.org/2000/svg">
<path d="M40.0174 0.682617H20.9523C17.7965 0.682617 15.2383 3.10379 15.2383 6.09045V58.9489C15.2383 61.9356 17.7965 64.3568 20.9523 64.3568H40.0174C43.1732 64.3568 45.7314 61.9356 45.7314 58.9489V6.09045C45.7314 3.10379 43.1732 0.682617 40.0174 0.682617Z" fill="#00C65E"/>
<path d="M45.6872 6.09045C45.6872 3.10379 43.1289 0.682617 39.9732 0.682617C39.1588 11.9094 37.8859 24.3275 34.0291 39.7741C30.1723 55.2207 23.2357 64.3568 26.3915 64.3568H39.9732C43.1289 64.3568 45.6872 61.9356 45.6872 58.9489V6.09045Z" fill="#08A636"/>
<path d="M45.7285 21.499H15.2354V22.9004H45.7285V21.499Z" fill="#FAFAFA"/>
<path d="M18.6609 28.2739V34.3418H20.6877V28.2739H18.6609Z" fill="#FAFAFA"/>
<path d="M18.6526 9.57178V15.6396H20.6794V9.57178H18.6526Z" fill="#FAFAFA"/>
<path d="M55.9873 68.995C55.9873 68.995 53.8023 70.952 45.0831 70.952C36.3639 70.952 34.1858 68.995 34.1858 68.995L35.5299 51.9495C35.9227 46.9657 39.8102 42.9082 45.09 42.9082C50.3629 42.9082 54.2917 47.0114 54.6432 51.9495L55.9873 68.995Z" fill="white"/>
<path d="M60.0988 55.7132C60.0988 58.9226 55.0947 62.8562 55.0947 62.8562C52.1309 62.8562 49.3738 58.1268 49.3738 55.7132C49.3738 53.2995 51.3037 51.3034 54.5571 51.1469C57.6726 50.9577 60.0988 52.445 60.0988 55.7132Z" fill="white"/>
<path d="M45.0918 44.0501C45.9561 44.0501 46.6567 43.387 46.6567 42.569C46.6567 41.751 45.9561 41.0879 45.0918 41.0879C44.2275 41.0879 43.5269 41.751 43.5269 42.569C43.5269 43.387 44.2275 44.0501 45.0918 44.0501Z" fill="white"/>
<path d="M40.9424 65.2106L36.4277 66.9784L28.7837 52.04L32.6643 52.0531L40.9424 65.2106Z" fill="white"/>
<path d="M58.3594 70.0191C58.3594 70.0191 56.1675 71.9761 47.4552 71.9761C38.7428 71.9761 36.5579 70.0191 36.5579 70.0191L37.9364 52.9736C38.3224 47.9833 42.2098 43.9258 47.4896 43.9258C52.7694 43.9258 56.6982 48.0289 57.0498 52.9736L58.3594 70.0191Z" fill="#FFB762"/>
<path d="M57.7355 64.6444H57.4392C53.8688 64.6444 50.9187 59.4257 50.9187 56.7381C50.9187 53.7765 53.3587 51.5782 56.8602 51.389C57.7157 51.3042 58.5806 51.3855 59.4019 51.6277C60.2232 51.87 60.9836 52.2682 61.6368 52.798C62.1751 53.3107 62.5962 53.9228 62.8736 54.5962C63.1511 55.2695 63.2791 55.9898 63.2497 56.712C63.2497 60.2346 58.1767 64.2725 57.9561 64.4422L57.7355 64.6444ZM57.3702 52.9024H56.9842C54.3375 53.0524 52.5592 54.5854 52.5592 56.7316C52.5592 58.8778 54.9647 62.7852 57.2048 63.0918C58.6454 61.8981 61.6713 58.93 61.6713 56.7316C61.7058 56.2125 61.6249 55.6923 61.4337 55.2046C61.2426 54.717 60.9454 54.2727 60.5615 53.9005C59.6707 53.1956 58.5294 52.8387 57.3702 52.9024Z" fill="#FFB762"/>
<path d="M47.437 45.0745C48.3013 45.0745 49.002 44.4114 49.002 43.5934C49.002 42.7754 48.3013 42.1123 47.437 42.1123C46.5727 42.1123 45.8721 42.7754 45.8721 43.5934C45.8721 44.4114 46.5727 45.0745 47.437 45.0745Z" fill="#FFB762"/>
<path d="M43.2868 66.2357L38.7721 68.0035L31.135 53.0586L35.0156 53.0782L43.2868 66.2357Z" fill="#FFB762"/>
<path d="M38.2126 51.1113L56.7439 51.1324C56.6541 50.6166 56.2673 49.7314 56.2673 49.7314L38.6619 49.7319C38.5447 50.1683 38.2849 50.6714 38.2126 51.1113Z" fill="white"/>
<path d="M48.794 47.2858H45.6848L46.2225 46.6855H48.2563L48.794 47.2858Z" fill="white"/>
<path d="M54.868 64.5266L53.8134 66.1444L53.4067 55.6875L54.5371 56.1702L54.868 64.5266Z" fill="white"/>
<path d="M13.7374 61.2114L20.6869 59.581L13.6467 57.926L11.9628 51.4775L10.2724 57.926L3.23218 59.581L10.1817 61.2114L11.9628 68.0031L13.7374 61.2114Z" fill="#FD9558"/>
<path d="M6.56089 43.5193L10.6477 42.557L6.5026 41.5823L5.51166 37.7881L4.51425 41.5823L0.369141 42.557L4.46243 43.5193L5.51166 47.5159L6.56089 43.5193Z" fill="#FD9558"/>
</svg>
