<svg width="64" height="70" viewBox="0 0 64 70" fill="none" xmlns="http://www.w3.org/2000/svg">
<path d="M57.5641 18.8352L63.907 17.3062L57.4808 15.7582L55.9368 9.71387L54.3927 15.7582L47.9666 17.3062L54.3094 18.8352L55.9368 25.2082L57.5641 18.8352Z" fill="#FD9558"/>
<path d="M7.3019 28.7686L11.1048 27.8519L7.25194 26.9237L6.3262 23.2998L5.40046 26.9237L1.54761 27.8519L5.3505 28.7686L6.3262 32.5895L7.3019 28.7686Z" fill="#FFB762"/>
<path d="M36.8984 40.368C39.4966 23.7087 47.5021 19.1396 47.5021 19.1396C43.7713 25.8363 40.941 32.9708 39.0807 40.368H36.8984Z" fill="#1E7836"/>
<path d="M39.9954 40.3678C41.6712 29.1795 49.2426 30.5795 49.2426 30.5795C49.2426 30.5795 45.8005 29.613 42.1776 40.3678H39.9954Z" fill="#1E7836"/>
<path d="M39.9954 40.3678C41.6712 29.1795 49.2426 30.5795 49.2426 30.5795C49.2426 30.5795 44.0282 29.613 40.4113 40.3678H39.9954Z" fill="#1E7836"/>
<path d="M23.3696 40.5144C22.0253 29.2793 14.4177 30.4743 14.4177 30.4743C14.4177 30.4743 17.8839 29.5839 21.1814 40.4324L23.3696 40.5144Z" fill="#1E7836"/>
<path d="M23.4899 40.4083C21.8743 29.2376 14.2969 30.5732 14.2969 30.5732C14.2969 30.5732 19.5053 29.6184 23.0679 40.4083H23.4899Z" fill="#1E7836"/>
<path d="M25.9743 40.4256C23.5208 23.7487 15.5515 19.1152 15.5515 19.1152C19.2246 25.841 21.9941 32.9971 23.7921 40.408L25.9743 40.4256Z" fill="#1E7836"/>
<path d="M25.9746 40.4268C23.5211 23.7499 16.4561 19.7783 16.4561 19.7783C16.4561 19.7783 22.5988 24.6695 24.8956 40.4092L25.9746 40.4268Z" fill="#1E7836"/>
<path d="M29.3003 40.3678C29.9032 23.4449 23.3625 4.55957 23.3625 4.55957C23.3625 4.55957 23.7122 28.4063 27.1302 40.3678H29.3003Z" fill="#1E7836"/>
<path d="M27.7956 40.3678C26.3669 24.8449 23.377 4.55957 23.377 4.55957C23.377 4.55957 23.7145 28.4063 27.1325 40.3678H27.7956Z" fill="#1E7836"/>
<path d="M33.9184 40.3678C33.5205 23.4156 40.3324 4.63574 40.3324 4.63574C40.3324 4.63574 39.6814 28.4591 36.1127 40.3678H33.9184Z" fill="#1E7836"/>
<path d="M34.7976 40.3681C35.5451 22.7949 40.3315 5.59082 40.3315 5.59082C40.3315 5.59082 39.6805 28.4359 36.1118 40.374L34.7976 40.3681Z" fill="#1E7836"/>
<path d="M30.4105 40.3677C30.0066 23.433 30.8626 0.751953 30.8626 0.751953C30.8626 0.751953 36.1735 28.4414 32.5988 40.3677H30.4105Z" fill="#1E7836"/>
<path d="M40.1577 61.0397H20.2164L17.1541 38.9795H39.8503H42.8342L40.1577 61.0397Z" fill="#FD9558"/>
<path d="M45.2434 43.5215L42.8645 63.9316H25.1624L22.4387 43.5215H45.2434Z" fill="white" stroke="#FD9558"/>
<path d="M55.2991 68.7969H6.07874L2.88379 54.9609H51.9233H58.3615L55.2991 68.7969Z" fill="#00C65E"/>
<path d="M55.5416 69.0711H5.83295L2.50537 54.6611H58.7366L55.5416 69.0711ZM6.3152 68.4854H55.0533L57.9891 55.2293H3.2589L6.3152 68.4854Z" fill="#00C65E"/>
<path d="M51.3473 56.4061L48.9963 55.8789C50.4552 49.74 52.2395 45.4229 54.2891 43.0505C56.0192 41.0413 57.4358 41.0296 57.8277 41.0765C58.1979 41.1024 58.557 41.211 58.877 41.3939C59.1969 41.5768 59.4691 41.829 59.6723 42.1309C60.9925 43.9702 60.5645 48.5744 58.4064 55.7676L56.0915 55.1116C58.7681 46.1844 57.9965 43.6129 57.6408 43.3961C57.2972 43.4899 54.1746 44.5032 51.3473 56.4061Z" fill="#00C65E"/>
<path d="M2.97775 56.1198C0.319309 49.2077 -0.446275 44.6973 0.705114 42.7174C0.889378 42.3886 1.14775 42.1045 1.46092 41.8864C1.77409 41.6683 2.13395 41.5219 2.51358 41.458C3.31533 41.2705 7.83046 41.0245 12.3697 55.288L10.0669 55.9792C8.04145 49.6178 6.15462 46.6069 4.92486 45.2186C3.80362 43.9358 3.06817 43.7893 2.91747 43.7718C2.87527 43.7718 2.85116 43.8128 2.81499 43.8713C2.27245 44.8086 2.57989 48.3642 5.22628 55.2939L2.97775 56.1198ZM2.97775 43.7483H2.92952H2.97775Z" fill="#00C65E"/>
<path d="M11.3029 69.0877H12.0203L9.6813 54.6484H8.96997L11.3029 69.0877Z" fill="#FFB762"/>
<path d="M7.80575 69.1053L9.1199 69.1112L6.78698 54.6719L5.4668 54.666L7.80575 69.1053Z" fill="#FFB762"/>
<path d="M15.6523 69.1053L16.0983 69.1112L13.7594 54.6719L13.3193 54.666L15.6523 69.1053Z" fill="#FFB762"/>
<path d="M45.4816 69.0936H44.1675L46.5788 54.666H47.8929L45.4816 69.0936Z" fill="#FFB762"/>
<path d="M52.2871 69.0936H49.7673L52.1786 54.666H54.6984L52.2871 69.0936Z" fill="#FFB762"/>
</svg>
