<svg width="57" height="73" viewBox="0 0 57 73" fill="none" xmlns="http://www.w3.org/2000/svg">
<path d="M49.9256 56.2446L56.9256 54.6146L49.9256 52.9646L48.2356 46.5146L46.4556 52.9546L39.4556 54.6046L46.4556 56.2346L48.2356 63.0246L49.9256 56.2446Z" fill="#F89358"/>
<path d="M6.42535 8.95918L10.5154 7.95918L6.36535 6.95918L5.36535 3.15918L4.36535 6.95918L0.235352 7.98918L4.32535 8.98918L5.32535 12.9892L6.42535 8.95918Z" fill="#FFB762"/>
<path d="M36.047 66.0541L26.187 72.2641C25.7878 72.4803 25.341 72.5935 24.887 72.5935C24.4331 72.5935 23.9863 72.4803 23.587 72.2641L13.707 66.2641C13.3309 66.064 13.025 65.7537 12.8302 65.3748C12.6354 64.9959 12.561 64.5665 12.617 64.1441L20.417 15.7141C20.5298 15.1746 20.8293 14.6922 21.2629 14.352C21.6965 14.0117 22.2362 13.8354 22.787 13.8541H27.887C28.4371 13.8338 28.9765 14.0097 29.4089 14.3504C29.8412 14.6912 30.1383 15.1745 30.247 15.7141L37.167 63.7141C37.2306 64.171 37.1584 64.6366 36.9592 65.0527C36.76 65.4688 36.4428 65.8171 36.047 66.0541Z" fill="#08A636"/>
<path d="M36.2171 65.9242L27.6971 71.2842C27.3689 71.4901 26.9894 71.5994 26.6021 71.5994C26.2147 71.5994 25.8352 71.4901 25.5071 71.2842L16.9871 65.9242C16.6566 65.7146 16.3926 65.4151 16.2262 65.0609C16.0597 64.7067 15.9976 64.3125 16.0471 63.9242L22.4171 18.0542C22.4737 17.5646 22.7092 17.1131 23.0783 16.7865C23.4474 16.4598 23.9242 16.281 24.4171 16.2842H28.7871C29.2799 16.281 29.7567 16.4598 30.1258 16.7865C30.4949 17.1131 30.7304 17.5646 30.7871 18.0542L37.1271 63.9042C37.1836 64.2926 37.1279 64.6891 36.9667 65.047C36.8055 65.4048 36.5454 65.7092 36.2171 65.9242Z" fill="#00C65E"/>
<path d="M31.867 0.144531H19.247C18.9299 0.174237 18.6234 0.274701 18.3502 0.438527C18.077 0.602353 17.8441 0.825368 17.6685 1.09115C17.4929 1.35693 17.3792 1.65872 17.3356 1.97428C17.2921 2.28984 17.3199 2.61114 17.417 2.91453L20.417 14.4445C20.5121 14.8694 20.7433 15.2516 21.0754 15.5332C21.4075 15.8147 21.8224 15.9802 22.257 16.0045H28.957C29.3917 15.9802 29.8066 15.8147 30.1387 15.5332C30.4708 15.2516 30.7019 14.8694 30.797 14.4445L33.797 2.91453C33.8954 2.60351 33.9211 2.27404 33.872 1.95154C33.8229 1.62905 33.7003 1.32214 33.5139 1.05448C33.3274 0.78683 33.0819 0.565588 32.7964 0.407819C32.5108 0.250051 32.1929 0.159972 31.867 0.144531V0.144531Z" fill="#08A636"/>
<path d="M31.667 1.9541H21.197C20.9202 1.99639 20.6559 2.09874 20.4227 2.25398C20.1896 2.40922 19.9933 2.6136 19.8475 2.85276C19.7017 3.09193 19.61 3.3601 19.5788 3.63845C19.5477 3.91681 19.5778 4.19862 19.667 4.4641L22.127 14.8741C22.1849 15.2476 22.3677 15.5904 22.6456 15.8465C22.9235 16.1026 23.2801 16.2569 23.657 16.2841H29.217C29.5928 16.2565 29.948 16.1018 30.2242 15.8456C30.5005 15.5893 30.6813 15.2467 30.737 14.8741L33.197 4.4641C33.2863 4.19862 33.3164 3.91681 33.2853 3.63845C33.2541 3.3601 33.1624 3.09193 33.0166 2.85276C32.8708 2.6136 32.6745 2.40922 32.4414 2.25398C32.2082 2.09874 31.9439 1.99639 31.667 1.9541Z" fill="#00C65E"/>
<path d="M29.307 12.375H21.807C20.1888 12.375 18.877 13.6868 18.877 15.305V17.215C18.877 18.8332 20.1888 20.145 21.807 20.145H29.307C30.9251 20.145 32.237 18.8332 32.237 17.215V15.305C32.237 13.6868 30.9251 12.375 29.307 12.375Z" fill="#F89358"/>
<path d="M24.9671 58.5847V59.7347H28.6571V61.3747H24.9671V63.0247H23.1471V61.3747H21.8271V59.7347H23.1471V58.5847H21.8271V56.9347H23.1471V51.5047H27.6671C28.1533 51.4858 28.6382 51.5646 29.0934 51.7364C29.5486 51.9081 29.9647 52.1694 30.3171 52.5047C30.6461 52.8326 30.9071 53.2223 31.0852 53.6513C31.2633 54.0803 31.355 54.5402 31.355 55.0047C31.355 55.4692 31.2633 55.9291 31.0852 56.3581C30.9071 56.7871 30.6461 57.1768 30.3171 57.5047C29.9647 57.84 29.5486 58.1013 29.0934 58.273C28.6382 58.4448 28.1533 58.5236 27.6671 58.5047L24.9671 58.5847ZM27.6671 56.9347C27.9171 56.9417 28.1659 56.8974 28.3981 56.8045C28.6303 56.7116 28.841 56.5722 29.0171 56.3947C29.1979 56.2205 29.3402 56.0104 29.4349 55.7779C29.5296 55.5454 29.5747 55.2956 29.5671 55.0447C29.5742 54.7947 29.5299 54.5459 29.437 54.3138C29.3441 54.0816 29.2046 53.8709 29.0271 53.6947C28.8499 53.5151 28.6379 53.3737 28.404 53.2791C28.1701 53.1845 27.9194 53.1388 27.6671 53.1447H24.9671V56.9247L27.6671 56.9347Z" fill="white"/>
</svg>
