<svg width="61" height="59" viewBox="0 0 61 59" fill="none" xmlns="http://www.w3.org/2000/svg">
<path d="M36.6841 5.99489L28.724 10.2862L20.3987 5.99489V0.848633H36.6841V5.99489Z" fill="#00C65E"/>
<path d="M28.4741 58.0552H45.5315V21.7658L49.8477 24.2559L56.0315 13.6729L44.2117 5.08193C43.5643 4.70011 42.867 4.30169 42.5516 4.16889C40.4007 3.3604 38.1329 2.90628 35.8366 2.82422C35.5627 4.4345 33.969 10.2946 28.4658 10.2946C22.9626 10.2946 21.369 4.4843 21.0951 2.82422C18.8015 2.90717 16.5366 3.36128 14.3883 4.16889C14.0895 4.30169 13.3923 4.70011 12.7282 5.08193L0.916748 13.6729L7.10056 24.2891L11.4168 21.799V58.0552H28.4741Z" fill="#00C65E"/>
<path d="M20.3727 0.848633L28.5403 10.2862L24.1245 14.3202L18.4304 3.10635L20.3727 0.848633Z" fill="#CCEFDB"/>
<path d="M36.7152 0.848633L28.5393 10.2862L32.9634 14.3202L38.6575 3.10635L36.7152 0.848633Z" fill="#CCEFDB"/>
<path d="M30.026 10.0449H27.0461V21.2588H30.026V10.0449Z" fill="#CCEFDB"/>
<path d="M9.59898 22.8452L7.10056 24.2895L0.916748 13.6733L3.29897 11.9385L9.59898 22.8452Z" fill="#CCEFDB"/>
<path d="M47.3484 22.8452L49.8468 24.2895L56.0306 13.6733L53.6484 11.9385L47.3484 22.8452Z" fill="#CCEFDB"/>
<path d="M45.54 55.7969H11.417V58.0463H45.54V55.7969Z" fill="#CCEFDB"/>
<rect x="20.374" y="0.848633" width="16.3357" height="2.79974" fill="#CCEFDB"/>
<path d="M53.0882 48.6323L60.0484 46.8956L52.985 45.1879L51.2599 38.4344L49.5947 45.2011L42.5379 46.9642L49.5185 48.6463L51.3278 55.762L53.0882 48.6323Z" fill="#FFB762"/>
<path d="M15.5388 14.3298L19.4175 13.4123L15.4816 12.5149L14.5221 8.94573L13.5961 12.5223L9.66187 13.4505L13.5476 14.3376L14.5579 18.0944L15.5388 14.3298Z" fill="white"/>
</svg>
