<svg width="69" height="66" viewBox="0 0 69 66" fill="none" xmlns="http://www.w3.org/2000/svg">
<path d="M47.5724 1.59375H23.6056C21.009 1.59375 18.9041 3.64949 18.9041 6.18538V60.3611C18.9041 62.8969 21.009 64.9527 23.6056 64.9527H47.5724C50.169 64.9527 52.274 62.8969 52.274 60.3611V6.18538C52.274 3.64949 50.169 1.59375 47.5724 1.59375Z" fill="white"/>
<path d="M47.5723 1.59375H44.4771C44.4771 1.59375 42.8084 47.7798 34.3643 64.9527H47.5723C50.1689 64.9527 52.2739 62.8969 52.2739 60.3611V6.18538C52.2739 3.64949 50.1689 1.59375 47.5723 1.59375Z" fill="#CCEFDB"/>
<path d="M28.0298 1.59375H42.4904V2.85599C42.4892 3.08295 42.4418 3.3074 42.3509 3.51628C42.26 3.72516 42.1274 3.91427 41.9609 4.07262C41.7944 4.23096 41.5973 4.35536 41.3811 4.43856C41.1649 4.52177 40.9339 4.56212 40.7016 4.55727H29.7812C29.3167 4.55727 28.8712 4.37706 28.5427 4.05629C28.2143 3.73553 28.0298 3.30047 28.0298 2.84684V1.59375Z" fill="#00C65E"/>
<path d="M40.701 5.27126H29.7806C29.1249 5.27126 28.496 5.01685 28.0323 4.564C27.5686 4.11116 27.3081 3.49696 27.3081 2.85654V0.880859H43.2298V2.85654C43.2299 3.17832 43.1641 3.49687 43.0363 3.79347C42.9086 4.09007 42.7214 4.35874 42.4858 4.5837C42.2502 4.80866 41.971 4.98537 41.6645 5.10344C41.358 5.22152 41.0304 5.27857 40.701 5.27126ZM28.7598 2.29859V2.85654C28.7598 3.12096 28.8673 3.37454 29.0588 3.56151C29.2502 3.74849 29.5099 3.85353 29.7806 3.85353H40.701C40.9718 3.85353 41.2314 3.74849 41.4229 3.56151C41.6143 3.37454 41.7219 3.12096 41.7219 2.85654V2.29859H28.7598Z" fill="#00C65E"/>
<path d="M47.5738 65.8672H23.607C22.1166 65.8672 20.6873 65.289 19.6334 64.2598C18.5796 63.2306 17.9875 61.8348 17.9875 60.3792V6.18526C17.9875 4.72976 18.5796 3.33386 19.6334 2.30466C20.6873 1.27546 22.1166 0.697266 23.607 0.697266H47.5738C49.0641 0.697266 50.4934 1.27546 51.5473 2.30466C52.6011 3.33386 53.1932 4.72976 53.1932 6.18526V60.361C53.1956 61.0832 53.0521 61.7988 52.7708 62.4667C52.4895 63.1347 52.076 63.7418 51.5539 64.2534C51.0319 64.7649 50.4116 65.1708 49.7285 65.4478C49.0455 65.7247 48.3133 65.8672 47.5738 65.8672ZM23.607 2.5083C22.6134 2.5083 21.6605 2.89377 20.9579 3.5799C20.2554 4.26604 19.8607 5.19663 19.8607 6.16697V60.361C19.8607 61.3313 20.2554 62.2619 20.9579 62.948C21.6605 63.6342 22.6134 64.0196 23.607 64.0196H47.5738C48.5673 64.0196 49.5202 63.6342 50.2228 62.948C50.9253 62.2619 51.32 61.3313 51.32 60.361V6.18526C51.32 5.21493 50.9253 4.28433 50.2228 3.5982C49.5202 2.91206 48.5673 2.5266 47.5738 2.5266L23.607 2.5083Z" fill="#00C65E"/>
<rect x="22.2336" y="50.8467" width="26.7107" height="9.42696" rx="1" fill="#FFB762"/>
<rect x="22.2336" y="38.4668" width="26.7107" height="7.43408" rx="1" fill="#FFB762"/>
<rect x="22.2356" y="11.2051" width="26.7107" height="1.46499" rx="0.732496" fill="#FFB762"/>
<rect x="22.2356" y="18.0205" width="26.7107" height="1.46499" rx="0.732496" fill="#FFB762"/>
<rect x="22.2356" y="24.8359" width="16.6505" height="1.46499" rx="0.732496" fill="#FFB762"/>
<rect x="22.2356" y="31.6514" width="13.3739" height="1.46499" rx="0.732496" fill="#FFB762"/>
<path d="M10.4097 14.1466L17.0437 12.5369L10.3214 10.91L8.7085 4.55762L7.09561 10.91L0.373291 12.5369L7.0132 14.1466L8.7085 20.8382L10.4097 14.1466Z" fill="#00C65E"/>
<path d="M59.9856 51.0895L68.0158 49.1411L59.8787 47.1718L57.9264 39.4824L55.974 47.1718L47.8369 49.1411L55.8671 51.0895L57.9264 59.1894L59.9856 51.0895Z" fill="#FFF06E"/>
</svg>
