<svg width="63" height="74" viewBox="0 0 63 74" fill="none" xmlns="http://www.w3.org/2000/svg">
<path d="M22.9123 13.8887L17.1423 17.0887L44.8123 66.9587C44.9753 67.257 45.1964 67.5195 45.4626 67.7308C45.7289 67.9421 46.0348 68.0978 46.3623 68.1887C46.6934 68.2878 47.0411 68.3195 47.3847 68.2817C47.7282 68.2439 48.0607 68.1374 48.3623 67.9687L49.5923 67.2887C49.8885 67.1239 50.1494 66.9024 50.3599 66.6369C50.5705 66.3713 50.7267 66.0668 50.8196 65.7409C50.9124 65.4149 50.9402 65.0738 50.9012 64.7372C50.8622 64.4005 50.7572 64.0748 50.5923 63.7787L22.8823 13.9087L22.9123 13.8887Z" fill="#CCE7D7"/>
<path d="M5.68244 20.0191L18.7824 16.8591L32.7824 8.09906L28.6824 0.789062L13.8524 7.97906L4.25244 17.4391L5.68244 20.0191Z" fill="#00C65E"/>
<path d="M7.92242 20.7895L21.0224 17.6295L35.0224 8.87953L30.9224 1.51953L16.0824 8.70953L6.48242 18.1695L7.92242 20.7895Z" fill="#CCE7D7"/>
<path d="M56.9352 7.02532L55.5342 5.99351C54.836 5.47933 53.8532 5.62849 53.339 6.32667L31.1787 36.4172C30.6645 37.1153 30.8137 38.0982 31.5119 38.6123L32.9129 39.6441C33.6111 40.1583 34.5939 40.0092 35.1081 39.311L57.2684 9.2205C57.7826 8.52232 57.6334 7.5395 56.9352 7.02532Z" fill="#F89358"/>
<path d="M20.9825 73.6292C15.9692 72.3282 11.3511 69.8184 7.53252 66.3192C2.08252 61.2192 0.0825195 52.6392 0.0825195 52.6392C0.0825195 52.6392 9.72252 48.6392 14.8125 44.8092C24.1425 37.7892 27.0825 31.9092 27.0825 31.9092L39.7725 43.0492C37.3324 49.2951 34.1959 55.246 30.4225 60.7892C26.9025 66.0892 20.9825 73.6292 20.9825 73.6292Z" fill="#FFB762"/>
<path d="M4.58242 62.8394L3.98242 61.8994C4.08242 61.8394 14.0824 54.8994 18.9224 50.2094C22.8769 46.437 26.4416 42.276 29.5624 37.7894L30.4524 36.8594C27.2026 41.798 23.4528 46.3889 19.2624 50.5594C14.4224 55.3294 4.68242 62.7894 4.58242 62.8394Z" fill="#F89358"/>
<path d="M7.53252 66.3195L6.08252 64.8794C6.18252 64.7894 16.3925 56.6195 19.9225 52.7895C28.0825 44.0295 31.3825 38.7895 31.4125 38.6895L32.3025 39.1395C32.1825 39.3795 28.9625 44.7595 20.8125 53.6995C17.6825 57.1295 7.99252 65.9295 7.53252 66.3195Z" fill="white"/>
<path d="M2.25253 58.6989L1.34253 56.5689C1.44253 56.5189 11.2825 51.7789 15.6325 47.8889C24.2025 40.2289 27.4425 34.7189 27.4725 34.6689L27.9025 34.9189C27.9025 34.9189 25.0025 40.6789 16.3725 48.3989C11.9625 52.3289 2.34253 58.6489 2.25253 58.6989Z" fill="#F89358"/>
<path d="M11.7425 69.7886L11.0425 69.2786C11.1225 69.1886 17.4325 62.8786 22.9225 56.3486C27.2109 51.32 31.1089 45.9711 34.5825 40.3486L34.0925 41.0386L34.3925 40.6486C34.5125 40.9286 30.2625 47.8686 23.3925 56.6486C18.2625 63.1786 11.8225 69.7886 11.7425 69.7886Z" fill="white"/>
<path d="M21.8626 73.9489C21.8626 73.9489 20.1426 73.4989 19.5826 73.3089C19.0226 73.1189 16.4126 72.0589 16.4126 72.0589C20.5492 67.9445 24.4552 63.6046 28.1126 59.0589C32.2676 53.5604 35.8464 47.6494 38.7926 41.4189L40.0826 42.9489C37.6818 49.3054 34.5651 55.3677 30.7926 61.0189C27.3226 66.2989 21.9226 73.8789 21.8626 73.9489Z" fill="#F89358"/>
<path d="M27.5419 30.8012L42.0356 41.4752C42.2825 41.6603 42.4463 41.9354 42.4913 42.2407C42.5363 42.546 42.4588 42.8567 42.2759 43.1051L39.7793 46.4951L23.4095 34.4394L25.906 31.0495C26.0901 30.7997 26.3658 30.6331 26.6726 30.5866C26.9794 30.54 27.2921 30.6172 27.5419 30.8012Z" fill="#F89358"/>
<path d="M13.8825 28.1488L20.9525 27.1488L14.0825 24.8688L12.9525 18.2988L10.7225 24.5788L3.5625 25.6288L10.3425 27.8488L11.5425 34.7888L13.8825 28.1488Z" fill="#F89358"/>
<path d="M58.4726 49.6191L62.6226 49.0091L58.6226 47.6891L57.9126 43.7891L56.5926 47.4891L52.3826 48.1091L56.3826 49.4091L57.0826 53.4791L58.4726 49.6191Z" fill="#FFB762"/>
</svg>
