<svg width="75" height="56" viewBox="0 0 75 56" fill="none" xmlns="http://www.w3.org/2000/svg">
<path d="M15.8406 20.2295H57.7606C61.532 20.2295 65.1489 21.7277 67.8157 24.3944C70.4824 27.0612 71.9806 30.6781 71.9806 34.4495V34.8995C71.9806 38.1882 70.6742 41.3422 68.3487 43.6676C66.0233 45.9931 62.8693 47.2995 59.5806 47.2995H14.0206C10.7319 47.2995 7.57793 45.9931 5.25248 43.6676C2.92703 41.3422 1.62061 38.1882 1.62061 34.8995V34.4495C1.62061 30.6781 3.11878 27.0612 5.78555 24.3944C8.45231 21.7277 12.0692 20.2295 15.8406 20.2295Z" fill="#08A636"/>
<path d="M58.0807 20.2597H56.5107C55.2007 11.1797 46.8607 4.17969 36.7707 4.17969C26.6807 4.17969 18.3707 11.1797 17.0307 20.2597H15.3007C11.9368 20.2277 8.69782 21.5327 6.29573 23.8879C3.89365 26.2432 2.52503 29.4558 2.49072 32.8197C2.49072 39.7697 8.22072 43.6097 15.3007 43.6097H58.0807C65.1507 43.6397 70.8907 39.8197 70.8907 32.8197C70.8538 29.4566 69.4843 26.2455 67.0828 23.8909C64.6813 21.5363 61.4439 20.2304 58.0807 20.2597Z" fill="#00C65E"/>
<path d="M34.9005 20.5293H22.2605C22.2605 14.0193 27.9205 8.73926 34.9005 8.73926V20.5293Z" fill="white"/>
<path d="M34.2506 20.0498H25.1406C25.1406 15.3598 29.2206 11.5498 34.2506 11.5498V20.0498Z" fill="#CCE7D7"/>
<path d="M38.4707 20.5293H51.1207C51.1207 14.0193 45.4607 8.73926 38.4707 8.73926V20.5293Z" fill="white"/>
<path d="M52.4206 55.9202C56.988 55.9202 60.6906 52.2802 60.6906 47.7902C60.6906 43.3001 56.988 39.6602 52.4206 39.6602C47.8532 39.6602 44.1506 43.3001 44.1506 47.7902C44.1506 52.2802 47.8532 55.9202 52.4206 55.9202Z" fill="white"/>
<path d="M52.4207 49.7204C53.5032 49.7204 54.3807 48.8563 54.3807 47.7904C54.3807 46.7244 53.5032 45.8604 52.4207 45.8604C51.3382 45.8604 50.4607 46.7244 50.4607 47.7904C50.4607 48.8563 51.3382 49.7204 52.4207 49.7204Z" fill="white"/>
<path d="M52.4206 55.9201C56.1541 55.9201 59.1806 52.9428 59.1806 49.2701C59.1806 45.5974 56.1541 42.6201 52.4206 42.6201C48.6872 42.6201 45.6606 45.5974 45.6606 49.2701C45.6606 52.9428 48.6872 55.9201 52.4206 55.9201Z" fill="#FFB762"/>
<path d="M52.4205 50.8504C53.3097 50.8504 54.0305 50.143 54.0305 49.2704C54.0305 48.3978 53.3097 47.6904 52.4205 47.6904C51.5314 47.6904 50.8105 48.3978 50.8105 49.2704C50.8105 50.143 51.5314 50.8504 52.4205 50.8504Z" fill="white"/>
<path d="M20.9507 55.9202C25.5181 55.9202 29.2207 52.2802 29.2207 47.7902C29.2207 43.3001 25.5181 39.6602 20.9507 39.6602C16.3833 39.6602 12.6807 43.3001 12.6807 47.7902C12.6807 52.2802 16.3833 55.9202 20.9507 55.9202Z" fill="white"/>
<path d="M20.9507 49.7204C22.0332 49.7204 22.9107 48.8563 22.9107 47.7904C22.9107 46.7244 22.0332 45.8604 20.9507 45.8604C19.8682 45.8604 18.9907 46.7244 18.9907 47.7904C18.9907 48.8563 19.8682 49.7204 20.9507 49.7204Z" fill="white"/>
<path d="M20.9507 55.9201C24.6841 55.9201 27.7107 52.9428 27.7107 49.2701C27.7107 45.5974 24.6841 42.6201 20.9507 42.6201C17.2172 42.6201 14.1907 45.5974 14.1907 49.2701C14.1907 52.9428 17.2172 55.9201 20.9507 55.9201Z" fill="#FFB762"/>
<path d="M20.9506 50.8504C21.8398 50.8504 22.5606 50.143 22.5606 49.2704C22.5606 48.3978 21.8398 47.6904 20.9506 47.6904C20.0614 47.6904 19.3406 48.3978 19.3406 49.2704C19.3406 50.143 20.0614 50.8504 20.9506 50.8504Z" fill="white"/>
<path d="M29.2207 25.04V26.5H34.9807V25.04H29.2207Z" fill="white"/>
<path d="M45.4407 25.0293V26.4893H51.2007V25.0293H45.4407Z" fill="white"/>
<path d="M39.1306 20.0498H48.2406C48.2406 15.3598 44.1606 11.5498 39.1306 11.5498V20.0498Z" fill="#CCE7D7"/>
<path d="M7.636 28.2737C8.45997 26.881 8.64627 25.467 8.05211 25.1155C7.45795 24.764 6.30833 25.608 5.48436 27.0007C4.66039 28.3935 4.47409 29.8074 5.06825 30.159C5.66241 30.5105 6.81202 29.6664 7.636 28.2737Z" fill="#FFB762"/>
<path d="M68.8106 39.8692L74.1706 38.5592L68.7306 37.2692L67.3706 32.1592L66.0906 37.2792L60.6606 38.6092L66.0306 39.8892L67.4206 45.2692L68.8106 39.8692Z" fill="#FFB762"/>
<path d="M10.0106 10.1393L16.3706 8.54934L9.92061 6.98934L8.37061 0.819336L6.82061 7.00934L0.370605 8.61934L6.75061 10.1493L8.37061 16.6593L10.0106 10.1393Z" fill="#F89358"/>
</svg>
